<?xml version="1.0" standalone="no"?>
<!DOCTYPE svg PUBLIC "-//W3C//DTD SVG 1.1//EN" "http://www.w3.org/Graphics/SVG/1.1/DTD/svg11.dtd">
<svg xmlns="http://www.w3.org/2000/svg">
<metadata>Copyright (C) 2017 by original authors @ fontello.com</metadata>
<defs>
<font id="fontello" horiz-adv-x="1000" >
<font-face font-family="fontello" font-weight="400" font-stretch="normal" units-per-em="1000" ascent="850" descent="-150" />
<missing-glyph horiz-adv-x="1000" />
<glyph glyph-name="settings" unicode="&#xe800;" d="M839 58l-64 38c-12 7-28 5-38-4-38-34-72-58-124-73-14-4-23-17-23-31l0-74-172 0 0 74c0 14-9 27-23 31-48 13-86 35-128 73-10 9-25 11-37 4l-68-38-86 148 65 37c12 7 18 21 15 34-5 24-7 49-7 73 0 24 2 48 8 73 3 13-4 27-16 34l-64 37 86 148 66-38c12-7 28-5 38 4 42 38 80 60 128 73 14 4 23 17 23 31l0 74 172 0 0-74c0-14 9-27 23-31 52-14 86-39 124-73 10-9 26-11 38-3l63 37 85-148-64-37c-13-7-19-21-16-34 5-24 8-49 8-73 0-25-3-49-8-73-2-13 4-27 16-34l65-37-85-148 0 0z m145 187l-73 42c3 21 4 42 4 63 0 21-1 42-5 63l73 42c16 9 21 28 12 44l-118 202c-4 8-11 13-19 15-9 2-18 1-25-3l-71-42c-32 27-65 49-108 64l0 83c0 18-14 32-32 32l-236 0c-18 0-32-14-32-32l0-83c-40-14-76-35-112-64l-75 42c-15 9-35 4-44-12l-118-202c-4-8-6-16-3-24 2-9 7-16 15-20l72-42c-3-21-5-42-5-63 0-21 2-42 5-63l-73-42c-7-4-13-11-15-19-2-9-1-17 3-25l118-202c9-16 29-21 44-12l75 42c37-29 72-50 113-64l0-83c0-18 14-32 32-32l236 0c18 0 32 14 32 32l0 83c43 15 76 37 108 64l72-42c8-4 16-6 25-3 8 2 15 7 19 15l118 202c9 16 3 35-12 44l0 0z m-484-39c-80 0-145 65-145 144 0 79 65 144 145 144 80 0 145-65 145-144 0-79-65-144-145-144l0 0z m0 351c-115 0-209-93-209-207 0-114 94-207 209-207 115 0 209 93 209 207 0 114-94 207-209 207l0 0z" horiz-adv-x="1000" />

<glyph glyph-name="contacthelp" unicode="&#xe801;" d="M933 127c0-18-15-33-33-33l-800 0c-18 0-33 15-33 33l0 480 412-329c6-4 14-7 21-7 7 0 15 3 21 7l412 329 0-480 0 0z m-56 520l-377-300-377 300 754 0 0 0z m23 66l-800 0c-55 0-100-44-100-99l0-487c0-55 45-99 100-99l800 0c55 0 100 44 100 99l0 487c0 55-45 99-100 99l0 0z" horiz-adv-x="1000" />

<glyph glyph-name="cookiespolicy" unicode="&#xe802;" d="M549 372c-12-6-19-19-17-33l34-224-132 0 34 224c2 14-5 27-17 33-39 19-63 57-63 100 0 62 50 113 112 113 62 0 112-51 112-113 0-43-24-81-63-100l0 0z m125 100c0 96-78 174-174 174-96 0-173-78-173-174 0-59 29-112 77-144l-36-239c-2-8 1-17 7-24 6-7 14-11 23-11l204 0c9 0 18 4 23 11 6 7 9 16 7 24l-36 239c48 32 78 85 78 144l0 0z m-174-561c-242 0-439 197-439 439 0 242 197 439 439 439 242 0 439-197 439-439 0-242-197-439-439-439l0 0z m0 939c-276 0-500-224-500-500 0-276 224-500 500-500 276 0 500 224 500 500 0 276-224 500-500 500l0 0z" horiz-adv-x="1000" />

<glyph glyph-name="askfm-logo" unicode="&#xe803;" d="M1216 0c-72 0-144 14-203 41-67 30-113 75-133 129-17 47 3 99 44 116 22 9 41 14 57 14 34 0 54-19 70-36 9-11 19-20 29-28 41-33 87-50 138-50 48 0 112 6 112 53 0 38-28 51-86 69l-96 33c-249 79-249 190-249 264l0 1c0 120 151 226 324 226 142 0 251-48 302-131 17-27 23-52 18-73-6-23-25-37-39-45-30-15-53-22-72-22-29 0-49 15-78 35l-8 6c-35 25-68 37-103 37-59 0-96-20-96-52 0-31 30-46 75-60l129-41c88-27 152-69 190-124 33-47 37-92 37-114 0-77-39-142-114-187-65-39-156-61-248-61m975-101c-2 37 19 52 37 58 32 12 58 34 71 63 7 17 11 36 16 59 2 9 3 18 4 27 1 5 2 11 2 16 1 6 2 11 3 16 1 8 2 16 3 23 1 8 2 16 3 23 1 5 2 11 3 16 0 5 1 11 2 16 1 7 2 13 3 20 0 4 1 8 2 12 0 3 1 7 1 10l1 5 2 17c2 12 3 24 5 36 1 6 2 13 3 20 1 9 2 18 3 26 2 16 5 31 7 46 1 2 1 3 0 3 0 0 0 1-3 1-2 0-12 0-20 0l-11 0c-11 0-20 5-24 15-1 3-3 7-2 11 2 14 3 28 6 42 4 16 20 24 34 25 2 0 7 0 12 0 6 0 12 0 16 0l5 0c1 4 2 7 2 11 1 9 3 18 5 26 5 24 13 44 25 63 15 24 35 42 59 54 11 5 24 12 38 15 10 3 21 5 36 7 16 2 31 3 45 3 3 0 6 0 9 0 12-1 24-2 35-4 12-1 24-13 23-29-1-9-2-18-4-27 0-6-2-12-3-18l-1-5c-1-9-11-17-20-17-2 0-3 0-4 0-4 0-8 0-11 0-3 0-6 0-9 0-4 0-7 0-10 0-5 1-10 1-16 1-4 0-7 0-10 0-9-1-18-3-27-8-13-6-22-16-29-30-5-11-9-24-11-42 17 0 34 0 51 0l112 0 0-1 1 0 0 1 1 0c8-1 16-4 22-10 5-6 8-14 8-23-1-3-1-7-1-10l0-2c1 1 2 2 3 2 4 4 8 7 11 10 14 11 29 23 48 29 25 9 51 11 68 11 13 0 20-1 21-1 13-1 26-5 40-12 16-9 29-22 38-39 1-3 2-5 3-8 0-1 1-1 1-2l1 1c2 2 3 3 5 5 2 2 5 5 8 7 32 28 61 43 91 48 8 1 17 2 27 2 9 0 18-1 29-2 16-2 31-6 44-13 15-8 26-20 34-35 8-16 11-32 13-52 1-17-1-34-3-51l0-3c-1-11-3-23-4-35-1-5-2-11-3-17-1-5-1-10-2-15-1-5-2-11-2-17-1-5-2-11-2-16-1-7-3-15-4-22l-2-16c-1-3-1-6-2-10l-1-11c-2-14-4-28-6-42-1-5-1-10-2-15-1-7-1-13-2-19-1-8-3-15-4-22-1-7-2-15-3-22-1-5-1-10-2-15-1-6-1-13-2-19l-1-2c-1-8-2-16-5-23-4-9-11-16-20-18-6-1-11-2-18-2-8 0-16 0-24 0-7 0-13 0-19 0l-10 0c-12 0-21 5-25 15-2 5-3 9-3 12 1 7 2 15 3 23 1 3 1 6 2 9l0 3c1 5 2 9 2 13 1 6 2 12 2 18 2 10 3 19 4 29 2 12 4 24 5 36l3 18 7 53 2 12c1 10 2 19 4 28 1 6 2 11 2 17 2 9 3 18 4 27l1 2c2 17 4 35 5 53 1 12-1 21-6 30-5 8-13 11-20 13-5 1-11 2-16 2-7 0-15-2-22-4-2-1-4-2-6-3-15-6-29-16-43-31-1-1-2-3-4-4-2-3-3-6-4-9l-5-46-10-67c0-5-1-11-2-17 0-5-1-11-2-16-1-7-2-15-3-22-1-4-1-8-2-11 0-6-1-11-2-16l-2-15c-2-13-4-26-5-38-1-8-2-15-3-23-1-8-2-17-4-25 0-3 0-6-1-9-1-9-2-18-4-27-4-19-17-30-35-30-9 0-17 0-25 0-9 0-18 0-27 0l-6 0c-15 0-23 6-27 19-2 5-1 10-1 16l0 2c1 4 2 8 2 12 1 2 1 5 2 8 1 7 2 15 3 23 1 8 2 16 3 24 1 11 3 23 5 34l2 18 8 52 2 17c2 12 3 25 5 37 1 6 2 11 3 17 1 9 3 18 4 26 0 6 1 11 2 16 3 19 5 38 3 57-1 16-7 25-18 30-7 3-15 5-22 5-3 0-6-1-9-1-31-5-53-25-70-43-2-2-3-5-4-8 0-5-1-9-1-13-1-5-2-11-2-16-1-8-3-15-4-23l-2-11 0-4c-1-4-1-8-2-11-1-6-1-12-2-18-1-9-2-19-4-28-1-12-3-24-5-36l-2-17-10-71c-2-12-3-23-5-35-1-4-1-9-2-13-2-12-3-25-6-37-2-13-12-23-24-26-4-1-9-2-14-2-10 0-20 0-30 0-9 0-18 0-27 0-13 0-21 6-24 17-2 6-1 13-1 20l0 0c0 5 1 9 2 13 0 3 1 5 1 7 3 18 5 35 7 52 1 5 2 11 2 16 1 6 2 12 3 18 0 6 1 11 2 16 1 6 2 11 2 16 1 5 2 11 3 17 0 5 1 10 2 16 1 7 2 14 3 21 1 4 1 8 2 13 1 4 1 9 2 14l0 1c1 6 1 11 2 16 1 11 3 21 4 31 1 9 3 17 4 25 1 8 2 15 3 23 1 5 2 11 2 17 1 5 2 10 2 16 2 9 3 19 5 28l-83 0c-2 0-4-2-4-4-1-9-3-17-4-25 0-3-1-6-1-10-1-2-1-3-1-5-1-3-1-7-2-10 0-6-1-12-2-17-1-10-2-19-4-29-1-8-2-16-3-23-1-8-2-15-3-22-1-6-2-12-3-17 0-6-1-11-2-16-1-6-2-12-2-18-1-5-2-10-3-16-1-5-1-10-2-15-1-5-1-10-2-15-1-7-2-14-3-21-1-4-1-8-2-12-1-5-1-10-2-16-1-5-1-10-2-15-1-11-3-21-4-32-30-204-131-215-176-221-14-2-28-1-40 5-14 6-28 18-30 41m-1477 924c-119 0-119-81-119-120l0-17-6 16c0 0-11 26-44 51-30 24-86 52-179 52-198 0-352-173-352-394 0-230 145-403 338-403 4 0 9 0 13 0 52 2 99 15 141 37 35 18 63 45 83 76l6 11 0-21c0-48 13-111 119-111 50 0 85 18 103 55 15 30 15 64 15 81l0 521c0 66 0 166-118 166l0 0z m-308-600c-92 0-144 73-144 175 0 122 52 174 144 174 82 0 135-47 135-174 0-104-53-175-135-175l0 0z m1336-223c-114 0-117 91-119 151l0 7 0 512 0 7c2 62 5 155 119 155 41 0 72-10 91-30 29-30 28-74 28-103-1-4-1-8-1-11l0-104 149 169c10 11 19 21 28 28 28 24 53 36 78 36 20 0 40-7 61-21 8-6 16-12 22-18 51-53 30-111-3-144l-163-175 202-291c34-45 26-108-19-145-19-15-42-23-68-23-1 0-3 0-4 0-35 1-69 20-90 51l-193 284 0-182c0-74-9-153-118-153" horiz-adv-x="3195" />

<glyph glyph-name="error" unicode="&#xe804;" d="M500-150c276 0 500 224 500 500 0 276-224 500-500 500-276 0-500-224-500-500 0-276 224-500 500-500z m0 185c-41 0-74 37-74 81 0 45 33 81 74 81 41 0 74-36 74-81 0-44-33-81-74-81z m74 630l-6-200-22-199-92 0-22 199-6 200 148 0z" horiz-adv-x="1000" />

<glyph glyph-name="tab-home" unicode="&#xe805;" d="M814 283l0-355-180 0 0 285-268 0 0-285-180 0 0 375c0 18-14 32-32 32-18 0-32-14-32-32l0-439 308 0 0 285 140 0 0-285 308 0 0 419c0 18-14 32-32 32-18 0-32-14-32-32z m177 63l-468 468c-13 13-33 13-46 0l-468-468c-12-12-12-32 0-45 13-12 33-12 46 0l445 445 445-445c7-6 15-9 23-9 8 0 16 3 23 9 12 13 12 33 0 45z m-328 373l110 0 0-110c0-18 14-33 32-33 18 0 32 15 32 33l0 174-174 0c-18 0-32-14-32-32 0-18 14-32 32-32z" horiz-adv-x="1000" />

<glyph glyph-name="tab-questions" unicode="&#xe806;" d="M500-82c-238 0-432 194-432 432 0 238 194 432 432 432 238 0 432-194 432-432 0-238-194-432-432-432m0 932c-276 0-500-224-500-500 0-276 224-500 500-500 276 0 500 224 500 500 0 276-224 500-500 500m-5-623c-33 0-60-28-60-63 0-34 27-63 60-63 33 0 60 29 60 63 0 35-27 63-60 63z m119 343c-27 19-64 29-108 29-58 0-101-14-128-42-27-26-43-62-47-105l112-14c3 24 10 41 20 52 10 11 24 17 41 17 15 0 27-4 35-12 8-8 12-18 12-32 0-14-9-29-28-45-32-27-52-46-61-57-9-11-16-22-20-35-4-13 1-28 1-48l105 0c1 15 1 20 6 30 6 11 20 26 42 44 30 25 50 46 59 62 10 17 15 34 15 52 0 43-19 77-56 104z" horiz-adv-x="1000" />

<glyph glyph-name="tab-profile" unicode="&#xe807;" d="M492-124c-125 0-243 49-331 139l45 44c76-77 178-120 286-120 109 0 210 43 287 120l45-44c-89-89-206-139-332-139m0 869c-222 0-402-181-402-403 0-98 35-191 99-265 43 24 102 45 160 66 12 5 24 9 36 13l0 55c-21 15-50 47-56 110-15 12-24 33-24 59 0 22 7 41 19 53-11 37-24 96 7 130 9 9 24 19 48 20 27 40 90 55 141 55 62 0 139-21 154-81 11-44-3-94-13-125 12-12 18-30 18-52 0-26-9-47-24-59-5-63-35-95-56-110l0-55c14-4 27-9 40-14 62-22 117-42 157-64 64 73 99 166 99 264 0 222-181 403-403 403m-308-740c-9 0-17 3-23 10-87 87-135 204-135 327 0 257 209 466 466 466 257 0 466-209 466-466 0-123-48-239-134-327-11-11-28-12-41-4-34 24-98 47-166 72-20 7-40 14-60 22-13 5-21 16-21 29l0 95c0 13 9 26 22 30 0 0 35 15 35 83 0 14 9 27 22 30 1 5 1 11 0 15-13 4-22 16-22 31 0 7 2 13 6 25 7 22 21 68 14 99-4 16-41 33-93 33-51 0-88-17-92-33-4-16-20-26-36-23-11 2-15 0-15 0-3-3-7-17 10-77 3-12 5-18 5-24 0-15-10-27-23-31-1-4-1-10 0-15 13-3 23-16 23-30 0-68 34-83 36-83 11-5 20-17 20-30l0-95c0-13-8-24-20-29-19-7-38-14-57-21-66-24-134-48-170-73-5-4-11-6-17-6" horiz-adv-x="1000" />

<glyph glyph-name="tab-friends" unicode="&#xe808;" d="M616 0l-561 0 0 149c19 17 101 62 209 105 10 5 17 15 17 26l0 82c0 12-6 22-17 26 0 0-24 13-24 77 0 13-9 24-22 27-4 6-5 21-3 27 14 2 25 13 25 28 0 8-3 15-8 28-11 24-16 41-16 49 2 0 6 0 12-1 14-3 28 6 32 20 6 23 47 41 96 41l0 0c49 0 91-18 97-41 7-27-6-55-13-72-5-10-7-16-7-24 0-14 11-25 24-27 2-7 0-22-4-28-12-3-22-14-22-27 0-63-23-77-22-77l0 0c-11-4-19-14-19-26l0-82c0-11 7-21 18-26 107-43 190-88 208-105l0-149z m-170 299l0 48c16 14 36 43 40 100 17 13 27 39 27 65 0 15-3 29-10 39-2 4-5 7-8 10 10 22 21 57 11 95-15 61-90 83-150 83l0 0c-51 0-114-16-140-60-19 0-34-6-44-18-22-28-7-69 6-100-4-3-6-6-9-10-7-11-10-24-10-40 0-25 9-51 26-64 4-58 25-86 41-100l0-48c-150-62-226-109-226-142l0-185c0-15 12-28 28-28l616 0c15 0 27 13 27 28l0 185c0 33-76 80-225 142z m423-61c-17 6-36 13-54 20l0 26c18 13 37 39 41 82 14 14 21 39 21 63 0 19-5 34-13 45 11 19 22 49 11 82-16 48-77 65-129 65-43 0-93-12-118-45-19 0-31-9-38-16-19-24-9-58 0-83-3-3-5-6-7-10-7-13-8-28-8-38 0-24 7-49 21-63 4-43 23-69 41-82l0-25c0-15 12-27 27-27 16 0 28 12 28 27l0 42c0 12-7 22-19 26-1 0-22 9-22 56 0 11-7 21-18 25-3 8-4 23-2 30 11 3 20 14 20 27 0 7-2 13-6 23-3 6-9 22-10 33 1-1 2-1 3-1 14-3 28 5 32 18 5 14 34 28 76 28 43 0 72-14 77-28 6-16-6-37-13-49-5-8-9-15-9-24 0-13 8-23 20-27 2-7 0-22-3-30-3-1-6-3-9-6-5-5-8-12-8-19 0-47-21-56-21-56-12-3-20-14-20-26l0-62c0-11 7-22 17-26 24-9 49-18 74-27 33-12 78-28 94-38l0-148-199 0c-15 0-27-13-27-28 0-15 12-28 27-28l226 0c16 0 28 13 28 28l0 185c0 34-41 49-131 81z" horiz-adv-x="1000" />

<glyph glyph-name="tab-notifications" unicode="&#xe809;" d="M841 69l-704 0c-8 0-14 7-14 17 0 12 4 23 12 32 74 89 103 175 103 305 0 129 89 237 211 258l29 5 0 81c0 7 5 13 11 13 6 0 11-6 11-13l0-81 29-5c123-21 212-129 212-258 0-130 28-216 103-305 7-9 11-20 11-33 0-9-6-16-14-16m-361-149c-43 0-80 28-95 66l190 0c-15-38-52-66-95-66m418 244c-64 75-87 145-87 259 0 153-99 283-241 321l0 23c0 46-36 83-81 83-45 0-81-37-81-83l0-23c-141-38-241-168-241-321 0-114-23-184-86-259-18-22-28-50-28-78 0-48 38-88 84-88l173 0c11-83 83-148 170-148 87 0 159 65 170 148l191 0c47 0 85 39 85 87 0 29-10 57-28 79" horiz-adv-x="1000" />

<glyph glyph-name="search" unicode="&#xe80a;" d="M718 183c59 71 95 162 95 261 0 224-182 406-407 406-224 0-406-182-406-406 0-225 182-407 406-407 97 0 185 34 255 90l282-283 57 58-282 281z m-312 591c183 0 331-148 331-330 0-183-148-331-331-331-182 0-330 148-330 331 0 182 148 330 330 330z" horiz-adv-x="1000" />

<glyph glyph-name="ask" unicode="&#xe80b;" d="M973 526l7 25-198 60-8-24 199-61z m-142-464l134 439-198 61-135-439 199-61z m157 514l4 12c10 34-9 71-43 81l-75 23c-16 5-34 3-49-5-15-8-27-22-32-38l-4-13 199-60z m-318-649c1-4 4-7 9-9 3-1 6 0 9 1 1 1 2 1 3 2l130 114c0 0 1 1 2 2l-198 61c0-2 0-3 1-4l44-167z m2 300c2-5 11-34-9-56-2-2-3-4-2-7 0-19-7-34-19-40-6-3-12-4-19-3-2 1-3 0-4 0-4-1-7-4-7-8-4-21-16-37-33-42-4-1-9-2-14-2-1 0-3 0-4 0-4-1-7-4-7-9-1-24-12-42-29-51-3-1-7-3-10-3-16-4-33-1-50 10-2 2-5 2-8 1-3 0-5-2-6-5-5-10-11-17-20-21-3-1-5-2-8-3-15-4-33 1-50 14-2 1-5 2-8 1-4-1-6-3-7-6-5-18-16-30-30-35-28-9-62 16-75 56-1 5-6 8-11 7-2-1-3-1-4-2-4-3-8-5-13-7-28-9-61 16-74 56 0 1-1 1-1 2-1 4-5 7-9 7-6 0-16 1-26 9-12 11-20 30-22 57 0 2-1 3-1 4-2 3-6 10-11 21-11 24-15 51-14 78 1 25-2 48-6 68-2 13-4 24-4 34-2 39 5 78 11 116 2 13 4 28 6 41l14 102c0 0 7 44 36 51 1 1 3 1 4 1 13 2 26-5 40-19 12-12 19-26 20-28 0 0 0 0 1 0 2-3 21-30 44-45l2-1 1 1c1 0 1 0 1 0 1 0 2 0 4 1 5 2 13 6 29 10 17 4 38 7 62 10 53 7 88 4 99 3 2 0 3 0 4 0l2 0 1 1c20 20 31 50 33 54 0 0 0 0 0 0 0 2 4 14 11 28 6 12 17 27 33 31 1 1 2 1 3 1 33 4 51-41 52-42l72-184 1 0c1-3 2-5 2-7 1-1 1-1 1-1l0-1c1-2 2-4 2-5 0-1 1-1 1-2l0-1c1-1 1-3 2-4 0-1 0-2 1-3 0-2 1-3 1-5 1-1 1-2 1-3 1-1 1-3 1-4l1-1c0-1 0-2 0-2 1-2 1-4 2-5l0-1c0-1 0-1 0-2 1-2 1-4 2-5l0-1c0-1 0-1 0-2 1-2 1-4 1-5 1-3 2-5 2-7 4-12 5-25 6-41 1-13 2-28 5-44 11-53 4-90-1-102l-1-1 0-2z m34 203l0 0c0 1 0 2-1 3 0 2 0 4-1 6 0 1 0 2 0 2l-1 1c0 2-1 4-1 6 0 1 0 2-1 2l0 1c0 2-1 4-1 5-1 2-1 3-1 4l0 0c-1 2-1 3-2 5 0 1 0 2-1 4 0 1-1 3-1 5-1 1-1 2-2 3 0 2-1 4-1 5l-1 1c0 1 0 2-1 2 0 2-1 4-2 6l0 1c0 0-1 1-1 2-1 2-2 5-3 7l-73 184c0 2-7 18-20 34-21 26-49 39-78 35-3 0-6-1-9-2l0 0c-32-7-51-33-62-54-8-15-12-29-14-34-2-6-7-15-12-24-42 2-76-2-89-4-26-3-49-7-67-11-6-2-11-3-17-5-8 9-15 18-16 20-4 6-13 21-27 35-30 31-58 35-77 32-4 0-7-1-10-1-18-5-43-18-59-54-8-17-10-32-10-35l-14-102c-2-13-4-26-7-40-6-41-13-82-11-125 1-13 3-25 5-39 3-19 6-39 5-59-2-34 4-68 18-98 3-7 6-13 9-19 4-35 17-61 37-79 8-7 18-13 29-16 10-20 23-37 39-49 12-9 24-15 37-18 12-3 24-4 35-2 9-14 19-25 31-34 11-9 24-15 36-18 15-4 29-4 44-1 1 1 3 1 4 2 16 5 30 14 41 27 17-6 35-6 52-2 6 1 11 3 17 6 7 3 14 8 20 13 18-5 37-6 55-2 6 2 13 4 18 7 24 12 42 33 50 60 24 8 43 26 54 50 4 1 9 3 13 5 16 8 28 21 36 37 4 10 7 20 8 32 10 15 15 32 16 51 0 8-1 16-2 24 4 18 10 57-1 113-2 13-3 26-4 39-1 17-3 34-8 50l0 0z m-259-5c-1 2-2 5-3 7 5 5 10 9 17 11 11 4 24 3 36-3 15-7 27-21 32-39 11-33-3-68-30-78-12-4-25-3-36 3-15 7-27 21-33 39-2 6-3 13-4 19 2 1 3 1 5 1 12 5 21 23 16 40m32 73c-20 5-39 2-55-9-41-27-48-98-17-157 19-34 48-59 78-66 12-3 23-3 34-1 8 2 14 5 21 9 41 28 48 98 17 157-19 34-48 59-78 67m-83-203c0 3-1 6-3 8 2-2 3-5 3-8l0 0z m-4-19c-1-3-1-5-2-8-2-6-4-13-5-18-2-5-3-9-5-12 0 0 0-1 0-1 0 0 0 1 0 1 2 3 3 7 5 12 1 5 3 12 5 18 1 3 1 5 2 8 1 2 1 4 2 6-1-2-1-4-2-6l0 0z m-13-40c0 0 0 1 1 1-1 0-1-1-1-1l0 0z m-1 0c0 0 0 0 1 0-1 0-1 0-1 0l0 0z m-2-1c0 0 0 0 0 0 0 0 0 0 0 0l0 0z m-1 1c0-1 0-1 0-1 0 0 0 0 0 1l0 0z m2-1c0 0 0 0 1 0 0 0-1 0-1 0 0 0 0 0 0 0l0 0z m-4 1c1 0 1 0 1 0 0 0 0 0-1 0l0 0z m-3 5c1-1 2-3 3-4 0 0 0 0 0 0 0 0 0 0 0 0-1 1-2 3-3 4l0 0z m-15 66c-1 0-1-1-2-1 1 0 1 1 2 1l0 0z m1 2c0-1-1-1-1-1 0 0 1 0 1 1l0 0z m2 1c0 0-1 0-1-1 0 1 1 1 1 1l0 0z m2 2c0-1-1-1-2-2 1 1 2 1 2 2l0 0z m2 0c0 0-1 0-2 0 1 0 2 0 2 0l0 0z m2 1c0 0-1 0-1 0 0 0 1 0 1 0l0 0z m4 1c-1 0-1 0-1 0 0 0 0 0 1 0l0 0z m2 0c0 0-1 0-1 0 0 0 1 0 1 0l0 0z m2 0c0 0 0 0 0 0 0 0 0 0 0 0l0 0z m3-1c0 0 0 0-1 0 1 0 1 0 1 0l0 0z m3 0c-1 0-1 0-1 0 0 0 0 0 1 0l0 0z m2-1c0 0-1 0-1 0 0 0 1 0 1 0l0 0z m2-1c0 0-1 0-1 0 0 0 1 0 1 0l0 0z m-17 2c0 0 0 0 0 0 0 0 0 0-1 0 1 0 1 0 1 0l0 0z m26-9l-7 5c0 0 0 0 0 0 0 0 0 0 0 0l7-5z m-1 13l-1 0 0 0c-8 6-18 7-26 5l0 0c-7-1-12-5-17-10l-6-7c-6-7-7-16-3-24 7-15 20-38 28-49 3-5 9-7 15-6 4 1 7 4 9 8 6 13 12 40 16 55 2 8-1 17-8 22l-7 6z m-141-26c-2 0-5-1-8-1-12-1-24 4-34 13-12 11-19 28-20 47 0 6 1 13 2 19 2 0 3 0 5 0 15 1 27 16 26 33 0 3 0 6-1 8 6 4 13 6 19 6 13 1 25-4 34-13 13-11 20-28 21-47 0-31-18-58-44-65m45 167c-15 14-33 21-52 19-49-5-90-63-91-130 0-39 13-75 36-96 15-13 34-20 53-18 3 0 7 1 10 2 44 11 79 66 80 128 1 39-13 75-36 95m-98 91l-11 5c-9 5-17 14-18 16-1 3-16 24-33 20-18-3-20-26-21-29l-14-103 12 20c0 1 33 57 73 68l12 3z m358 74c-3 6-7 11-12 15-6 4-13 6-20 5-15-2-24-21-27-30 0-2-1-4-2-5-2-4-5-12-10-17l-7-7 10-1c62-4 98-46 98-47l23-27-53 114z" horiz-adv-x="1000" />

<glyph glyph-name="caret-right" unicode="&#xe80c;" d="M277-150c-17 0-33 6-46 19-25 25-25 66 0 91l390 390-390 390c-25 25-25 66 0 91 25 25 66 25 91 0l436-435c25-26 25-66 0-92l-436-435c-12-13-29-19-45-19" horiz-adv-x="1000" />

<glyph glyph-name="askfm-solo" unicode="&#xe80d;" d="M806 109c1-7 1-42-28-60-3-2-5-4-5-7-6-22-19-37-35-40-7-1-15 0-22 3-2 1-3 1-5 1-4 0-8-2-10-6-12-23-30-37-51-38-6 0-11 1-17 3-1 0-2 1-4 1-5 0-9-3-11-8-9-26-27-44-50-48-4-1-8-1-12-1-19 1-38 11-53 28-2 2-5 4-8 4-4 0-7-1-9-4-9-9-19-15-30-17-3-1-6-1-10-1-18 0-37 12-52 31-2 3-5 5-9 5-4 0-8-2-10-5-11-19-27-29-45-29-35-1-64 38-66 87 0 6-5 11-11 11-2 0-3 0-5-1-5-2-11-3-16-3-35-1-65 38-67 87 0 1 0 2 0 3 0 5-3 10-8 11-6 1-18 6-26 19-11 16-13 40-7 71 1 2 1 4 0 5-1 4-4 13-5 27-4 31-1 63 9 93 10 28 13 55 16 79 2 15 3 29 6 40 11 44 31 86 50 127 7 15 14 30 21 46l48 110c1 0 22 48 58 47 1 0 3-1 5-1 14-2 27-14 38-34 10-18 14-36 15-38 0-1 0-1 0-1 1-4 14-41 36-65l1-2 2 0c0 0 1 0 1 0 1 0 3 0 5 0 6 1 17 2 36 2 21-1 45-4 73-8 63-10 101-25 114-30 2 0 3-1 4-1l2-1 2 1c28 16 52 47 54 50 0 1 1 1 1 1 1 2 9 15 21 28 11 11 29 25 47 25 2 0 3 0 5-1 38-6 44-63 44-63l23-233 0 0c0-3 1-6 1-9 0 0 0-1 0-1l0-2c0-2 1-4 1-6 0 0 0-1 0-2l0-1c0-2 0-4 0-6 0-1 0-2 0-3 1-2 1-4 1-6 0-1 0-2 0-4 0-1 0-3 0-5l0-1c0-1 0-2 0-3 0-2 0-4 0-6l0-1c0-1 0-1 0-2-1-2-1-4-1-6l0-2c0 0 0-1 0-2 0-2 0-4 0-6-1-3 0-6 0-8 0-15-3-31-7-49-3-15-7-32-8-51-6-64-26-103-35-115l-2-1 0-2z m105 219l0 0c0 0-1 2 0 3 0 3 0 5 0 8 0 0 0 1 0 2l0 1c0 2 0 5 0 7 1 1 1 2 1 3l0 1c0 2 0 4 0 7 0 1 0 2 0 4l0 0c0 2 0 4 0 6 0 2 0 3 0 4 0 2 0 4-1 7 0 1 0 3 0 4 0 2 0 4 0 6l0 1c0 1 0 2 0 3-1 3-1 5-1 7l0 1c0 1 0 2 0 3-1 3-1 6-2 9l-22 232c0 2-3 23-12 45-16 37-43 60-77 65-3 1-7 1-11 1l0 0c-38 2-69-22-88-41-13-15-23-29-26-35-5-6-13-15-21-22-48 15-88 22-103 24-30 5-57 8-80 9-7 0-13 0-20 0-7 13-11 25-12 28-2 8-8 28-19 48-24 45-55 58-77 62-4 1-8 1-12 1-21 1-54-6-84-41-14-17-22-34-23-37l-49-110c-6-15-13-29-20-44-21-44-42-89-53-138-4-14-6-29-8-45-2-23-5-46-13-69-13-38-17-78-12-117 1-8 3-17 5-25-7-40-1-74 16-100 7-11 17-21 28-28 4-26 14-49 28-69 10-13 22-24 35-32 13-7 26-12 40-14 5-18 13-34 24-48 10-13 22-24 35-32 15-9 32-14 49-15 2 0 4 0 6 0 19 1 38 7 54 18 18-12 38-19 59-20 7 0 14 1 21 2 9 2 18 5 27 9 19-13 40-20 61-20 8-1 16 0 24 1 30 6 57 24 75 52 30 1 57 15 77 39 6 0 12 0 18 1 20 4 38 14 52 30 8 10 15 21 19 34 16 14 28 32 35 53 2 9 4 18 5 27 11 20 30 62 36 129 2 15 5 30 8 45 4 20 8 39 8 60l0 0z m-296 78c0 3 0 6-1 9 7 4 15 6 23 7 14 1 28-4 40-15 14-13 23-33 24-55 1-41-26-76-60-78-14-1-29 4-40 14-15 14-24 34-24 56-1 7 0 15 2 23 2-1 3-1 5-1 15 1 32 19 31 40m61 72c-22 12-44 15-66 8-55-18-86-95-70-172 10-45 35-83 66-101 13-7 26-11 39-11 9-1 18 1 27 3 55 18 86 95 70 172-10 45-35 83-66 101m-160-203c1 3 0 7-2 10 2-3 3-7 2-10l0 0z m-11-20c-2-3-4-6-5-8-4-7-8-13-12-19-3-5-6-9-9-12 0-1 0-1-1-1 1 0 1 0 1 1 3 3 6 7 9 12 4 6 8 12 12 19 1 2 3 5 5 8 1 2 2 5 4 7-2-2-3-5-4-7l0 0z m-28-41c0 0 1 0 1 1 0-1-1-1-1-1l0 0z m-1 0c0 0 0 0 1 0-1 0-1 0-1 0l0 0z m-3 0c0 0 1 0 1 0 0 0-1 0-1 0l0 0z m-1 1c0 0 0 0 0 0 0 0 0 0 0 0l0 0z m3-1c0 0 0 0 0 0 0 0 0 0 0 0 0 0 0 0 0 0l0 0z m-4 2c0 0 0 0 0 0 0 0 0 0 0 0l0 0z m-3 7c1-2 2-4 2-6 0 0 0 0 0 0 0 0 0 0 0 0 0 2-1 4-2 6l0 0z m5 80c-1-1-2-1-3-2 1 1 2 1 3 2l0 0z m2 1c-1 0-1-1-2-1 1 0 1 1 2 1l0 0z m3 1c-1 0-2-1-2-1 0 0 1 1 2 1l0 0z m2 1c0-1-1-1-2-1 1 0 2 0 2 1l0 0z m3 0c-1 0-2 0-2 0 0 0 1 0 2 0l0 0z m2 0c-1 0-1 0-2 0 1 0 1 0 2 0l0 0z m5 0c-1 0-1 0-2 0 1 0 1 0 2 0l0 0z m2-1c0 0-1 0-1 0 0 0 1 0 1 0l0 0z m3-1c-1 0-1 0-1 0 0 0 0 0 1 0l0 0z m3-1c0 0-1 0-1 0 0 0 1 0 1 0l0 0z m2-2c0 0 0 1-1 1 1 0 1-1 1-1l0 0z m3-2c-1 1-1 1-1 1 0 0 0 0 1-1l0 0z m2-1c-1 0-1 0-1 0 0 0 0 0 1 0l0 0z m-19 8c0 0 1 0 1 0-1 0-1 0-1 0 0 0 0 0 0 0l0 0z m27-19l-6 9c0 0 0 0 0 0 0 0 0 0 0 0l6-9z m2 15l0 0 0 1c-8 9-18 14-29 14l0 0c-7 0-15-2-22-6l-9-6c-9-6-13-16-11-26 3-20 10-50 16-65 2-6 8-11 15-11 5 0 10 2 13 6 10 13 27 41 36 57 5 8 4 19-2 27l-7 9z m-167 17c-3 0-6 0-9 1-15 3-27 12-35 25-10 17-13 39-7 60 2 8 4 15 8 21 2 0 4-1 5-1 18-4 36 9 41 29 1 3 2 6 2 9 8 2 16 2 23 0 14-3 27-12 35-25 10-17 13-38 7-60-9-35-39-60-70-59m105 174c-12 21-31 34-53 38-57 11-122-42-145-118-13-44-9-88 10-119 13-21 31-34 54-38 3-1 7-1 11-1 54-2 112 48 133 119 13 44 9 88-10 119m-82 135l-10 10c-8 7-14 21-15 23-1 3-11 32-32 34-21 2-31-24-32-26l-50-113 20 19c0 1 56 53 105 53l14 0z m430-33c-2 8-5 15-9 21-6 7-13 11-21 13-18 2-34-17-40-26-1-2-3-4-4-5-3-4-10-11-17-15l-10-6 11-4c68-26 95-85 96-86l17-38-23 146z" horiz-adv-x="1000" />

<glyph glyph-name="back" unicode="&#xe80e;" d="M378-31c-13 0-27 5-37 16l-326 325c0 1 0 1 0 1 0 0 0 0 0 0-5 5-9 10-11 16-3 6-4 13-4 20 0 7 1 14 4 20 2 6 6 12 11 16 0 0 0 0 0 0 0 1 0 1 0 1l326 326c20 20 53 20 74 0 20-21 20-54 0-74l-237-237 770 0c29 0 52-23 52-52 0-29-23-52-52-52l-770 0 237-237c20-20 20-53 0-73-10-11-24-16-37-16" horiz-adv-x="1000" />

<glyph glyph-name="settings-account" unicode="&#xe80f;" d="M912 499l-348 0 0 43 348 0 0-43z m-48-87l-300 0 0 43 300 0 0-43z m-126-87l-174 0 0 43 174 0 0-43z m-174 304l174 0 0-44-174 0 0 44z m133-565c-1 0-2 0-2 0l-348 0c-12 0-21 10-21 22l0 33c0 30-25 54-55 54-30 0-54-24-54-54l0-33c0-12-10-22-22-22l-173 0c-12 0-22 10-22 22l0 695c0 12 10 21 22 21l998 0c12 0 22-9 22-21l0-365-7 1c-17 3-34 4-51 4-16 0-33-1-50-4l-26-4-4-26c0-3 0-5-1-7-1-7-2-13-2-18 0-16-5-17-10-18l-2 0c-9 7-18 14-28 21l-24 18-21-15c-29-20-53-43-72-72l-15-20 15-21c6-7 11-15 18-24l6-7c-1-2-1-4-2-6-1-2-1-3-2-4l-7-2c-11-1-22-3-33-4l-24-5-5-24c-6-33-6-67 0-101l2-14z m-588 310c1-12 2-27 3-39 0-2 1-1 1-10l360 0c0 9 1 8 1 10 1 12 3 26 3 38 2 20-6 36-25 44-33 15-68 26-105 31-2 0-5 1-9 2 1 15 3 27 13 38 8 9 8 23 12 36 22 5 11 26 15 40 2 8 5 19-9 21 1 14 2 27 2 39 2 28-12 46-36 56-14 6-26 9-42 10-13-1-27-4-41-10-24-10-38-28-37-56 1-12 2-25 3-39-15-2-12-13-10-21 4-14-7-35 15-40 4-13 5-27 12-35 10-12 12-24 13-39-4-1-6-2-9-2-36-5-71-15-105-30-18-9-27-23-25-44z m973-439c3 2 7 3 11 3 7 0 12-4 16-7 6-4 12-9 18-13 5-4 11-9 17-13 25 17 46 38 63 63-7 9-13 18-20 27l-6 8c-2 3-8 11-1 34 7 21 15 25 20 27 3 1 5 1 6 1l14 2c10 2 20 3 30 4 5 30 5 60 0 89-3 1-6 1-9 2-4 1-8 1-12 1-35 0-48 21-51 38-4 6-6 16 3 28 4 6 8 12 13 17 4 6 9 12 13 18-17 25-39 46-63 63-9-7-19-14-29-22l-7-5c-3-3-8-4-13-4-7 0-42 7-47 24-1 3-1 5-1 6l-2 14c-2 10-3 20-4 30-15 3-30 4-45 4-14 0-29-1-44-4-1-3-1-6-2-8 0-4-1-9-1-12-1-37-21-49-39-53-3-2-7-3-11-3-7 0-12 4-16 6-10 9-21 16-31 24l-4 3c-25-17-46-38-63-63 6-8 11-16 17-23 4-5 7-9 10-13 2-3 7-10 0-34-8-23-17-25-20-26-3-1-5-1-6-1l-12-2c-11-1-21-3-32-5-5-28-5-58 0-88 12-2 23-4 34-5l11-2c9-1 17-10 24-25 6-15 7-27 2-34-1-1-1-2-2-3l-1-1-7-11c-6-8-12-15-18-23 17-25 38-46 63-63 10 7 20 15 31 23l5 4c3 2 8 4 13 4 7 0 42-7 47-24 1-3 1-5 1-7 1-5 2-9 2-14 2-9 3-19 4-29 15-3 30-4 45-4 15 0 30 1 44 4 1 3 1 5 2 8 1 4 1 8 1 12 1 36 21 49 39 53m-87 59l-1 0c-30 0-59 16-81 38-22 22-34 53-34 84 0 63 52 116 115 116 64 0 116-56 116-119 0-63-52-119-115-119m1 44c43 0 78 35 78 78 0 43-35 78-78 78-43 0-78-35-78-78 0-43 35-78 78-78z" horiz-adv-x="1262" />

<glyph glyph-name="flag" unicode="&#xe810;" d="M906 808l-709 0c-11 0-21-9-21-20l0-500c0-12 10-21 21-21l709 0c11 0 20 9 20 21l0 500c0 11-9 20-20 20l0 0z m-813 42c-23 0-42-19-42-42l0-916c0-23 19-42 42-42 23 0 42 19 42 42l0 916c0 23-19 42-42 42l0 0z" horiz-adv-x="1000" />

<glyph glyph-name="twitter" unicode="&#xe811;" d="M500-150c276 0 500 224 500 500 0 276-224 500-500 500-276 0-500-224-500-500 0-276 224-500 500-500z m250 653c-18-8-38-14-59-16 21 12 38 32 45 56-20-12-42-20-65-25-19 20-45 32-75 32-56 0-102-45-102-101 0-8 1-16 2-23-85 4-161 44-211 106-9-15-14-33-14-51 0-35 18-66 46-84-17 0-33 5-47 12l0-1c0-49 35-90 82-99-8-2-17-3-27-3-6 0-13 0-19 1 13-40 51-69 96-70-35-27-79-43-127-43-9 0-17 0-25 1 45-28 99-45 157-45 189 0 292 154 292 287 0 5 0 9 0 13 20 15 37 32 51 53z" horiz-adv-x="1000" />

<glyph glyph-name="vk" unicode="&#xe812;" d="M500-150c276 0 500 224 500 500 0 276-224 500-500 500-276 0-500-224-500-500 0-276 224-500 500-500z m156 334l-2 0c-25 5-43 25-57 43-9 10-21 33-37 31-21-4-11-45-20-62-7-14-38-12-59-9-68 8-102 47-133 90-32 46-57 93-80 146-8 17-18 35-18 56 11 10 29 7 47 7 15 0 39 3 50-3 7-4 14-23 19-36 12-29 24-50 39-73 6-11 16-30 28-27 11 2 12 33 13 52 0 23 0 50-6 62-6 11-16 12-26 18 8 19 32 21 60 21 23 0 56 3 65-14 10-18 3-49 3-72-1-27-5-54 11-66 13 1 20 15 27 26 16 23 26 43 39 73 5 12 10 34 20 37 14 6 36 2 57 2 17 0 47 5 53-8 4-11-9-38-13-45-16-28-31-46-48-71-7-10-21-25-20-41 1-12 11-21 20-30 18-18 31-32 46-53 5-7 17-24 16-34-4-32-71-12-94-20z" horiz-adv-x="1000" />

<glyph glyph-name="instagram" unicode="&#xe813;" d="M501 254c53 0 96 43 96 95 0 53-43 96-96 96-53 0-97-43-97-96 0-52 44-95 97-95m110 194l68 0c8 0 14 6 14 14l0 67c0 8-6 14-14 14l-68 0c-7 0-14-6-14-14l0-67c0-8 7-14 14-14m-111 402c-276 0-500-224-500-500 0-276 224-500 500-500 276 0 500 224 500 500 0 276-224 500-500 500l0 0z m250-691c0-32-27-59-59-59l-382 0c-32 0-59 27-59 59l0 382c0 32 27 59 59 59l382 0c32 0 59-27 59-59l0-382 0 0z m-97 190c0-83-68-151-152-151-84 0-152 68-152 151 0 14 1 28 5 41l-47 0 0-218c0-8 6-14 14-14l359 0c8 0 14 6 14 14l0 218-47 0c4-13 6-27 6-41" horiz-adv-x="1000" />

<glyph glyph-name="language" unicode="&#xe814;" d="M500 850c-275 0-500-225-500-500 0-275 225-500 500-500 275 0 500 225 500 500 0 275-225 500-500 500l0 0z m345-300l-145 0c-15 65-40 120-70 180 90-35 170-95 215-180l0 0z m-345 200c40-60 75-125 95-200l-190 0c20 70 55 140 95 200l0 0z m-385-500c-10 30-15 65-15 100 0 35 5 70 15 100l170 0c-5-35-5-65-5-100 0-35 5-65 5-100l-170 0 0 0z m40-100l145 0c15-65 40-120 70-180-90 35-170 95-215 180l0 0z m145 400l-145 0c50 85 125 145 215 180-30-60-55-115-70-180l0 0z m200-600c-40 60-75 125-95 200l190 0c-20-70-55-140-95-200l0 0z m115 300l-230 0c-5 35-10 65-10 100 0 35 5 65 10 100l235 0c5-35 10-65 10-100 0-35-10-65-15-100l0 0z m15-280c30 55 55 115 70 180l145 0c-45-85-125-145-215-180l0 0z m90 280c5 35 5 65 5 100 0 35-5 65-5 100l170 0c10-30 15-65 15-100 0-35-5-70-15-100l-170 0 0 0z" horiz-adv-x="1000" />

<glyph glyph-name="like" unicode="&#xe815;" d="M1000 511c-5 81-36 152-103 204-35 28-77 41-121 43-87 6-163-19-224-82-22-23-39-48-52-77-13 29-30 54-52 77-60 63-137 88-224 82-44-2-86-15-121-43-67-52-98-123-103-204-3-51 11-100 33-146 29-60 75-106 123-152 94-92 344-292 344-292 0 0 250 200 344 292 48 46 94 92 123 152 22 46 36 95 33 146" horiz-adv-x="1000" />

<glyph glyph-name="owl-peek-left" unicode="&#xe816;" d="M510 127c-30-78-66-104-66-104-2-8-12-44-47-54-2 0-3-1-4-3-11-20-30-33-49-31-3 0-6 1-8 2-6 1-11 4-15 8-1 1-2 1-2 1-3 1-5 0-7-1-17-20-41-30-63-25-1 1-2 1-3 1-5 2-10 4-14 8-1 0-2 0-2 1-3 0-5 0-7-3-16-23-40-37-65-35-5 0-9 1-13 3-20 6-36 22-46 44-1 2-3 3-4 3-2 1-4 1-5 0-11-8-24-11-36-10-4 0-8 1-11 2-20 6-36 24-45 48-1 2-2 3-4 4-2 0-4 0-6-2-16-15-36-22-55-17-1 0-2 1-3 1-34 11-53 59-41 108l0 0c1 3-1 6-4 7-1 1-2 1-3 1-6-1-12-1-18 1-1 0-2 0-3 1-34 11-52 58-41 108 1 1 1 1 1 2 1 3 0 6-3 7-12 7-44 33-9 103 1 1 1 1 1 2 0 4 0 14 2 28 4 33 17 63 35 90 26 38 37 80 52 108 30 54 75 100 114 148 17 21 31 37 31 37l45 56c0 0 36 43 73 31 2 0 4-1 5-2 18-8 27-28 31-47 5-21 4-40 4-42 0-1 0-1 0-1 0-3 2-42 16-70 0 0 0 0 1 0 2-1 14-2 39-10 16-5 39-14 68-27 66-31 100-59 104-62 31 7 61 31 63 32 1 0 1 1 1 1 1 1 12 12 28 21 17 10 38 18 56 12 2-1 4-1 5-2 39-18 29-79 29-79l-18-101-23-129c0-3-1-6-1-9 0-1-1-2-1-3 0-2 0-4-1-6 0-1 0-3-1-4 0-2 0-3-1-5 0-1 0-3-1-4 0-2 0-3-1-5 0-1 0-3-1-4 0-2-1-4-1-5-1-2-1-3-1-4-1-2-1-4-2-6 0-1-1-2-1-3-1-2-1-4-2-6 0-1-1-2-1-3-1-2-1-4-2-7-1-2-2-4-2-7-7-27-27-55-41-92m81 82c0 1 1 2 1 3 1 3 2 5 2 7 1 1 1 2 1 3l0 1c1 2 2 4 3 6 0 1 0 2 0 3l1 1c0 2 1 4 2 6 0 1 0 3 1 4l0 0c0 2 1 4 1 6 1 2 1 3 1 4 1 2 1 4 2 6 0 2 0 3 1 4 0 3 1 5 1 7l0 0c1 1 1 3 1 4 0 2 1 4 1 6l0 1c0 1 1 2 1 3 0 3 1 6 1 9l23 129 18 100c0 0 0 0 0 1 0 2 3 22 0 45-5 37-23 65-52 79-3 1-7 2-10 4-34 11-68-3-90-16-17-10-29-21-34-26-6-4-18-12-30-18-42 29-80 47-93 53-28 13-52 23-74 30-8 3-15 5-21 6-4 13-5 27-6 34 0 8 1 29-4 51-11 47-35 68-54 77-4 1-7 3-10 4-20 6-51 8-87-17-17-11-29-25-31-27 0 0 0-1 0-1l-45-55-31-38c-10-12-20-24-31-37-31-36-63-73-87-116-7-13-13-27-19-42-9-21-18-43-32-64-21-32-36-69-41-106-2-11-2-20-2-26-17-37-21-70-12-98 4-15 12-27 19-35-3-26 0-51 9-73 5-15 13-28 23-39 11-11 23-19 36-24 0-19 3-38 9-55 6-15 14-28 24-39 12-12 25-21 41-26 1 0 3-1 5-1 19-5 38-4 57 3 14-17 31-29 50-36 7-2 13-3 20-4 10-1 20 0 29 2 15-17 33-30 53-37 7-2 15-4 22-4 30-3 60 8 84 29 0 0 0 0 1 0 28-7 58-1 83 17 1 0 1 0 1 0 6-2 12-3 17-4 19-1 38 3 54 14 11 7 20 16 28 27 18 8 34 22 46 40 5 9 9 18 12 25 16 16 45 51 69 113 5 15 12 29 19 42 9 18 18 35 23 55m-267 14c-37 8-58 49-47 92 2 10 6 19 11 27 3-2 5-3 8-4 15-3 31 12 34 26 1 4 2 8 1 12 10 3 20 4 30 2 37-8 58-49 47-92-10-43-48-71-84-63m119 78c5 76-36 136-91 134-54-2-102-65-107-141-5-76 36-136 91-134 54 2 102 65 107 141m-240-15l3-11c2-5 1-11-3-15-11-11-35-34-48-44-3-2-8 0-8 5-1 14 0 44 2 65 1 6 5 10 10 12l10 3c16 5 28-3 34-15m-157 64c-32 18-41 63-19 101 5 9 12 17 19 23 2-2 4-4 7-6 13-7 30 0 39 15 2 4 4 8 4 12 11 0 21-2 30-7 32-18 41-63 19-101-22-38-66-55-99-37m131 26c41 64 33 136-16 161-49 24-121-8-162-73-40-64-33-136 16-160 49-25 122 7 162 72m-27 276c-7 12-9 29-9 29 0 0 0 30-17 36-17 7-32-14-32-14l-60-74c0 0 69 37 118 23m324-150c9 2 18 7 23 11 2 1 4 3 6 4 5 5 24 19 38 13 7-3 11-8 14-15 3-6 3-13 2-20l-12-105c0 0-9 67-71 112" horiz-adv-x="655" />

<glyph glyph-name="owl-peek-right" unicode="&#xe817;" d="M828 554c64-56 76-100 76-100 7-5 38-27 36-64 0-2 0-4 1-5 16-18 22-40 13-58-1-2-2-5-4-7-4-5-8-9-14-12 0 0-1-1-1-1-2-2-2-5-1-7 13-24 14-50 1-69-1-1-1-2-2-3-3-4-7-8-12-11-1 0-1-1-2-1-1-3-1-5 0-8 17-23 23-51 11-75-2-4-4-8-7-11-13-17-34-27-59-29-1-1-3-1-4-3-1-1-2-3-1-5 3-13 2-26-3-38-2-4-4-7-6-10-13-16-36-25-62-26-2 0-4-1-5-2-1-2-2-4-1-6 9-21 9-43-3-60 0-1-1-1-1-2-23-29-75-30-119-2l0 0c-2 2-6 1-8-1 0-1-1-2-1-3-1-6-4-11-8-17 0-1-1-1-1-2-23-29-75-30-119-2 0 1-1 1-2 2-2 1-5 1-7-1-11-9-48-30-102 28-1 1-2 1-2 1-4 2-14 5-27 12-29 16-54 38-73 65-28 39-64 63-86 89-42 47-70 106-102 161-14 23-26 42-26 42l-37 63c0 0-29 50-5 81 1 2 2 3 4 4 14 15 36 16 56 14 22-3 40-11 42-12 0 0 0 0 0 0 3-1 41-12 74-9 0 0 0 0 0 1 2 2 6 13 23 34 11 14 27 32 50 56 53 53 92 75 96 79 4 31-8 69-9 72 0 0 0 0 0 0-1 2-7 16-11 35-3 19-4 42 9 58 1 1 2 3 3 4 31 31 86 0 86 0l90-52 117-68c3-1 6-3 8-4 1-1 2-1 3-2 2-1 4-2 5-3 1-1 2-1 3-2 2-1 4-2 5-3 1-1 2-1 4-2 1-1 3-2 4-3 1-1 2-2 3-2 2-1 4-3 5-4 1 0 2-1 3-2 2-1 3-2 5-3 1-1 2-2 3-3 2-1 3-2 5-4 1 0 2-1 3-2 1-1 3-3 5-4 2-2 4-3 6-5 24-16 44-45 75-71m-50 106c-1 1-3 2-4 3-2 1-4 3-5 4-1 1-2 1-2 2l-1 0c-2 2-4 3-6 5-1 0-1 1-2 2l-1 0c-2 2-4 3-5 4-1 1-3 2-4 3l0 0c-2 1-3 2-5 3-1 1-2 2-4 3-1 1-3 2-5 3-1 1-2 2-3 3-2 1-4 2-6 3l-1 1c-1 0-2 1-2 1-3 2-5 3-7 4l0 0c-1 1-2 1-3 2-3 1-5 3-8 4l-116 67-90 52c0 0 0 1-1 1-1 1-19 11-43 16-37 8-71 0-94-23-3-3-5-5-7-8-23-29-22-66-17-92 4-20 10-36 13-42 2-7 5-21 7-35-42-30-73-60-84-71-22-22-40-42-54-60-5-7-10-13-13-19-14 2-28 5-35 7-8 3-28 10-51 14-49 6-77-11-92-26-3-2-5-5-8-8-12-16-26-45-14-89 5-21 14-36 16-39 0 0 0-1 0-1l38-63 25-42c8-14 16-28 25-43 23-42 48-86 81-124 10-12 22-22 34-33 17-16 35-32 50-53 23-32 54-59 88-77 9-5 18-9 24-11 29-29 59-45 90-46 16-1 30 2 40 7 24-12 49-18 74-18 16 0 31 3 45 9 14 6 26 15 36 26 18-7 37-10 56-10 16 0 32 3 45 9 16 7 29 17 39 30 2 1 3 3 4 5 11 16 17 35 16 56 22 7 40 19 52 35 5 6 8 12 11 18 5 9 7 19 9 29 22 7 40 20 54 38 5 6 9 12 12 19 13 28 13 61 0 91 1 0 1 1 1 1 17 25 21 55 13 86 0 0 0 1 0 1 4 5 7 10 10 15 8 18 10 37 5 57-2 12-8 24-16 36-1 20-9 40-23 58-6 8-13 15-19 20-10 21-33 61-84 106-13 10-24 22-34 33-14 15-28 30-44 41m-108-252c-20-32-67-38-104-13-9 6-16 13-22 21 2 2 4 4 6 7 8 13-1 33-13 41-3 3-7 4-11 5 0 11 3 21 9 30 20 32 67 38 104 13 38-25 52-71 31-104m-33 142c-72 31-144 14-161-40-17-53 27-121 99-152 71-32 143-14 160 40 18 53-26 121-98 152m-70-236l12 0c6 0 11-3 13-8 7-15 21-46 26-62 1-4-3-8-7-7-15 5-43 16-62 26-6 2-9 8-9 13l1 11c1 17 12 26 26 27m-116-128c-28-25-75-17-104 17-6 8-12 17-15 26 3 1 5 3 8 5 11 10 11 29-1 43-3 3-6 6-9 8 3 10 9 19 17 26 28 25 75 18 103-17 29-34 30-82 1-108m21 135c-48 61-120 80-160 41-41-39-35-120 13-181 47-61 119-80 160-41 41 39 35 120-13 181m-275 71c-14-3-31 1-31 1 0 0-29 11-41-3-12-14 3-36 3-36l50-84c0 0-12 80 19 122m258 259c1 9-1 19-3 25 0 3-1 5-2 7-3 7-10 31 1 42 6 6 12 8 20 8 6 0 13-2 19-5l97-48c0 0-67 14-132-29" horiz-adv-x="702" />

<glyph glyph-name="owl-welcome" unicode="&#xe818;" d="M803 242c-5-86-33-124-33-124 0-8 1-47-30-69-1-1-2-2-3-4-5-24-18-42-38-47-3 0-6-1-9-1-6 0-12 2-18 4 0 0-1 1-2 1-2 0-5-2-6-4-11-26-31-43-55-44-1-1-2-1-3-1-6 0-11 1-17 3-1 0-1 0-2 0-3 0-5-1-6-4-8-29-28-50-54-56-4-1-9-1-13-1-22 0-43 10-60 29-1 1-3 2-4 2-2 0-4-1-5-3-9-10-20-18-33-21-4-1-8-1-12-1-21 0-42 12-59 33-1 2-3 3-5 3-2 0-4-1-5-3-11-21-29-34-50-35-1 0-2-1-3-1-37 0-70 42-74 95l0 0c0 3-3 5-6 5-1 0-2 0-3 0-6-3-12-4-18-5-2 0-3 0-4 0-37 0-70 42-74 94 0 1 0 2 0 3 0 3-2 5-5 6-14 3-54 19-41 99 0 1 0 2 0 3-1 3-4 13-7 28-5 34-3 68 7 100 14 47 11 91 18 125 12 63 43 123 67 183 10 26 18 47 18 47l28 70c0 0 22 54 62 54 2 0 4 0 6 0 21-3 35-20 45-37 11-20 17-39 17-41 0 0 0 0 0-1 1-2 16-40 38-64 1 0 1 0 1 0 3 0 14 3 42 3 18 0 43-1 76-6 75-9 118-26 123-27 27 17 50 50 52 52 0 0 0 0 0 0 1 2 9 16 22 31 13 15 31 30 52 30 2 0 3 0 5-1 44-5 53-69 53-69l14-106 18-136c0-3 1-6 1-9 0-1 0-2 1-3 0-2 0-4 0-6 1-2 1-3 1-4 0-2 0-4 0-6 0-1 1-3 1-4 0-2 0-4 0-6 0-1 0-2 0-4 0-1 0-3 0-5 1-2 1-3 1-4 0-2 0-4 0-6 0-2 0-3 0-4 0-2 0-5 0-7 0-1 0-2 0-3 0-2 0-5-1-7 0-3 0-5 1-8 1-30-10-63-12-105m55 107c0 2 0 3 0 4 0 3 0 5 0 8 0 1 0 2 0 2l0 2c0 2 0 4 0 7 0 1 0 2 0 3l0 1c0 2 0 4 0 7 0 1 0 2 0 4l0 0c0 2 0 4-1 6 0 2 0 3 0 5 0 2 0 4 0 6 0 2 0 3-1 5 0 2 0 4 0 6l0 1c0 1-1 2-1 3 0 3 0 6-1 8l0 1c0 0 0 1 0 2 0 4-1 7-1 10l-18 135-14 105c0 1 0 1 0 1 0 2-3 23-14 45-16 35-43 57-76 61-4 1-8 1-11 1-38 0-67-24-85-45-13-15-22-30-26-36-4-6-13-17-24-27-50 15-93 21-108 22-31 4-59 6-82 6-9 0-17 0-23 0-8 12-14 25-17 32-2 8-8 28-20 49-25 44-56 56-78 59-3 0-7 0-11 0-21 0-52-7-80-44-14-17-21-34-22-37 0 0 0 0 0 0l-28-70-18-47c-7-16-13-31-20-47-19-46-39-93-49-144-3-15-5-31-6-47-2-24-4-49-12-74-11-38-14-80-8-119 2-11 4-19 6-26-5-42 1-76 19-101 9-14 20-22 31-28 5-27 15-51 31-71 10-13 22-23 35-30 14-8 28-12 43-13 6-19 15-37 26-51 11-13 23-24 36-31 15-9 32-13 48-13 2 0 4 0 6 0 20 2 39 9 55 22 19-13 40-19 61-19 7 0 14 0 21 2 10 2 20 6 29 11 19-13 41-20 64-20 7 0 15 1 23 3 31 7 57 27 73 56 1 0 1 0 1 0 31 2 58 18 78 44 0 0 1 0 1 0 6 0 12 1 18 2 19 4 36 15 49 31 8 10 15 22 19 36 16 14 27 32 33 54 2 11 4 21 4 29 11 21 29 64 33 134 1 17 3 33 6 48 4 21 7 41 6 61m-269-71c-39-4-72 30-75 76-1 10 0 21 2 31 3-1 6-2 10-1 15 1 26 21 25 36 0 4-1 9-3 12 9 6 19 10 30 11 38 4 71-30 75-75 3-46-26-86-64-90m93 116c-19 77-78 123-131 104-54-20-82-98-63-175 20-77 79-124 132-104 54 19 81 97 62 175m-233-93l7-9c4-4 4-11 1-16-7-15-23-45-33-59-3-3-8-2-10 2-5 14-14 44-18 65-1 6 1 12 6 16l9 6c14 10 28 6 38-5m-175 14c-38 7-61 49-51 94 3 11 7 20 12 29 2-2 5-3 8-4 15-2 31 10 35 28 1 4 1 9 0 13 11 3 21 4 32 2 38-7 60-49 51-94-10-45-49-75-87-68m122 68c19 77-10 146-66 154-57 9-119-47-138-123-20-77 9-147 66-155 56-9 118 47 138 124m-113 265c-11 10-18 26-18 26 0 0-10 30-28 31-19 1-27-25-27-25l-38-92c0 0 58 59 111 60m368-45c8 5 14 13 18 18 2 2 3 4 5 6 4 7 19 27 34 25 8 0 14-4 19-10 4-6 7-12 8-19l21-108c0 0-30 63-105 88" horiz-adv-x="858" />

<glyph glyph-name="logout" unicode="&#xe819;" d="M976 355c-3 7-8 14-14 18l-198 198c-15 16-41 16-57 0-16-15-16-41 0-57l132-133-614-1c-22 0-40-18-40-41 0-22 18-40 40-40l0 0 617 0-136-136c-16-16-16-41 0-57 8-8 18-12 29-12 10 0 21 3 29 11l204 204c12 12 15 31 8 46m-445-220c-23 0-41-19-41-41l0-142-408 0 0 816 408 0 0-143c0-23 18-41 41-41l0 0c22 0 40 18 40 40l1 185c0 11-4 21-12 29-8 8-18 12-29 12l-490 0c-23 0-41-18-41-41l0-898c0-22 18-41 41-41l490 0c22 0 40 19 40 41l0 183c0 22-18 41-40 41" horiz-adv-x="1000" />

<glyph glyph-name="question" unicode="&#xe81a;" d="M494 740q86-62 86-184 0-64-42-124-12-20-88-80l-46-30q-40-34-48-60-6-16-8-44 0-14-16-14l-128 0q-16 0-16 12 4 98 28 124 16 22 48 48t56 42l24 14q22 16 34 34 28 44 28 70 0 40-26 78-28 36-92 36-68 0-94-44-28-42-28-92l-166 0q6 162 114 232 70 42 166 42 130 0 214-60z m-216-636q44 0 73-30t27-74q-2-46-32-73t-74-25q-44 0-73 29t-27 75 32 73 74 25z" horiz-adv-x="580" />

<glyph glyph-name="clock" unicode="&#xe81b;" d="M471 809q195 0 333-138t138-333-138-333-333-138-333 138-138 333 138 333 333 138z m0-840q154 0 261 109t108 260q0 154-108 261t-261 108q-152 0-260-108t-109-261q0-152 109-260t260-109z m37 635v-250l154-153-52-51-174 174v280h72z" horiz-adv-x="942" />

<glyph glyph-name="sad" unicode="&#xe81c;" d="M500 850c-275 0-500-225-500-500 0-275 225-500 500-500 275 0 500 225 500 500 0 275-225 500-500 500z m-400-500c0 220 180 400 400 400 220 0 400-180 400-400 0-220-180-400-400-400-220 0-400 180-400 400z m572-9c32 0 60 28 60 61 0 32-28 60-60 60-32 0-60-28-60-60 0-33 28-61 60-61l0 0z m-350 0c32 0 60 28 60 61 0 32-28 60-60 60-32 0-60-28-60-60 0-33 28-61 60-61l0 0z m348-256c-12 204-329 204-341 0l59 0c12 126 211 126 223 0l59 0z" horiz-adv-x="1000" />

<glyph glyph-name="facebook-solo" unicode="&#xe81d;" d="M571 316l171 0 39 168-210 0 0 116c0 51 28 84 108 84l102 0 0 159c-18 2-78 7-149 7-146 0-237-83-237-235l0-131-175 0 0-168 175 0 0-466 176 0 0 466z" horiz-adv-x="1000" />

<glyph glyph-name="safetycenter" unicode="&#xe81e;" d="M875 544l-752 0 0 199c61-35 117-51 174-51 77 0 149 29 202 82 53-53 125-82 203-82 57 0 112 16 173 51l0-199 0 0z m0-345c-9-27-80-200-376-287-294 86-366 261-376 287l0 284 752 0 0-284 0 0z m44 627c-10 5-22 4-31-2-70-49-128-71-186-71-71 0-136 31-179 86-11 15-37 15-48 0-43-55-108-86-178-86-59 0-117 22-187 71-9 6-21 7-31 2-10-5-16-16-16-27l0-605c0-3 0-6 1-8 2-10 67-234 427-335 3-1 5-1 8-1 3 0 6 0 8 1 360 101 425 325 428 335 0 2 1 5 1 8l0 605c0 11-7 22-17 27l0 0z" horiz-adv-x="1000" />

<glyph glyph-name="reload" unicode="&#xe81f;" d="M999 850c0-2 1-4 1-6 0-87 0-174 0-261l0-183c-1 0-3 1-4 1-57 10-114 20-171 30-83 15-166 30-249 45-17 3-34 6-53 9 56 43 111 86 167 128-2 1-3 2-4 2-62 39-129 56-203 50-68-5-128-29-179-72-87-73-126-166-114-277 7-73 39-136 94-186 80-74 176-101 283-83 110 18 189 78 238 176 2 5 3 6 8 5 47-12 95-23 142-34 12-2 23-5 35-8-1-2-2-4-2-6-29-72-73-133-132-185-86-75-187-116-301-126-11-1-21-2-31-3l-27 0c-2 1-3 1-5 1-25 3-50 4-74 8-142 26-254 97-336 213-43 62-69 132-78 207-2 11-3 22-4 33l0 48c0 2 1 4 1 6 2 36 9 70 19 104 71 231 303 380 548 352 96-11 181-45 257-102 4-3 8-6 12-10 2 1 2 2 3 2 52 40 104 79 156 119 1 1 2 2 3 3" horiz-adv-x="1000" />

<glyph glyph-name="twitter-solo" unicode="&#xe822;" d="M1000 680c-37-16-76-27-118-31 43 25 75 64 90 111-39-23-83-40-130-49-37 40-91 64-150 64-113 0-205-90-205-202 0-16 2-31 6-46-171 8-322 89-423 211-18-30-28-64-28-101 0-71 36-132 91-169-33 2-65 11-93 26l0-3c0-98 71-179 165-198-18-4-36-7-54-7-14 0-26 1-39 4 26-81 102-139 192-141-70-54-159-86-255-86-17 0-33 1-49 3 91-58 199-91 315-91 377 0 583 308 583 575 0 8 0 17 0 26 40 28 75 64 102 104" horiz-adv-x="1000" />

<glyph glyph-name="notifications-questions" unicode="&#xe823;" d="M667 419c-11-18-32-40-64-67-24-19-39-35-45-47-6-11-6-16-7-33l-112 0c0 23-6 39-1 52 4 14 12 26 21 38 10 11 32 32 66 61 20 17 29 33 29 48 0 15-4 26-12 35-9 8-22 12-38 12-18 0-32-6-44-18-11-11-18-30-21-56l-121 16c5 46 22 84 51 112 29 30 75 45 137 45 48 0 87-11 117-31 39-29 59-65 59-112 0-19-5-37-15-55m-172-336c-36 0-65 31-65 68 0 37 29 68 65 68 35 0 64-31 64-68 0-37-29-68-64-68m5 767c-276 0-500-224-500-500 0-276 224-500 500-500 276 0 500 224 500 500 0 276-224 500-500 500" horiz-adv-x="1000" />

<glyph glyph-name="hamburger" unicode="&#xe824;" d="M50 516l900-1 0 0c28 0 50 23 50 50 0 28-22 50-50 50l-900 1 0 0c-28 0-50-22-50-50 0-28 22-50 50-50z m900-351l-900 1 0 0c-28 0-50-22-50-50 0-28 22-50 50-50l900-1 0 0c28 0 50 23 50 50 0 28-22 50-50 50z m0 225l-900 1 0 0c-28 0-50-22-50-50 0-27 22-50 50-50l900-1 0 0c28 0 50 23 50 50 0 28-22 50-50 50z" horiz-adv-x="1000" />

<glyph glyph-name="upload-image" unicode="&#xe825;" d="M617 33c-141 0-256 115-256 256s115 256 256 256c141 0 256-115 256-256s-115-256-256-256z m-448 299c-47 0-85 38-85 85 0 47 38 86 85 86 47 0 85-39 85-86 0-47-38-85-85-85z m744 262h-70l-36 71-2-1c-22 34-51 49-81 49h-214c-30 0-59-14-81-46l-57-73h-116v15c0 34-33 70-68 70h-40c-34 0-63-33-63-66l0-25c-70-7-85-55-85-95v-443c0-65 38-105 107-105h806c70 0 111 40 111 105v443c0 43-21 101-111 101z m-295-452c-82 0-149 67-149 150s67 149 149 149c83 0 150-67 150-149s-67-150-150-150z m0 363c-117 0-213-96-213-213s96-214 213-214 214 96 214 214-96 213-214 213z m-449-39c-27 0-48-22-48-49s21-48 48-48c27 0 48 22 48 48s-21 49-48 49z" horiz-adv-x="1000" />

<glyph glyph-name="privacypolicy" unicode="&#xe826;" d="M472 187l0-102c0-17 14-31 31-31 17 0 30 14 30 31l0 102c13 9 21 24 21 41 0 28-23 51-51 51-29 0-51-23-51-51 0-17 8-32 20-41l0 0z m-286 234l633 0 0-510-633 0 0 510z m123 174c0 107 87 194 194 194 106 0 193-87 193-194l0-112-387 0 0 112 0 0z m449-112l0 112c0 141-115 255-255 255-141 0-256-114-256-255l0-112-122 0 0-633 755 0 0 633-122 0 0 0z" horiz-adv-x="1000" />

<glyph glyph-name="block" unicode="&#xe827;" d="M810 109l-559 559c68 53 153 85 245 85 220 0 399-179 399-399 0-92-32-178-85-245m-314-154c-220 0-399 179-399 399 0 92 32 178 85 245l559-559c-67-53-152-85-245-85m0 895c-135 0-257-54-347-142-1-1-2-2-4-3-1-1-2-3-3-4-88-89-142-212-142-347 0-274 223-496 496-496 135 0 258 54 347 142 1 1 3 2 4 3 1 1 2 3 3 4 88 89 142 212 142 347 0 274-222 496-496 496" horiz-adv-x="1000" />

<glyph glyph-name="share" unicode="&#xe828;" d="M702 291l0 72c0 14-10 27-23 31-2 0-52 14-122 14-83 0-193-19-281-106 16 64 45 116 89 155 117 104 299 84 301 84 9-1 18 2 25 8 7 6 11 15 11 24l0 72 215-177-215-177z m286 202l-298 245c-10 8-23 10-34 5-12-6-19-17-19-30l0-105c-66 1-209-9-315-102-82-73-123-180-123-319 0-14 10-27 24-31 3-1 6-1 8-1 12 0 23 6 29 17 105 198 308 178 377 165l0-115c0-12 7-23 19-29 11-5 24-4 34 4l298 246c8 6 12 15 12 25 0 10-4 19-12 25z m-213-326c-18 0-33-14-33-32l0-116-677 0 0 588 265 0c18 0 32 14 32 32 0 18-14 33-32 33l-298 0c-17 0-32-15-32-33l0-653c0-18 15-32 32-32l743 0c18 0 32 14 32 32l0 149c0 18-14 32-32 32z" horiz-adv-x="1000" />

<glyph glyph-name="vk-solo" unicode="&#xe829;" d="M813 44l-5 0c-51 9-85 48-115 85-17 20-42 67-72 61-44-7-22-88-40-123-15-28-77-23-120-18-135 15-204 95-264 180-65 91-115 186-162 291-15 34-35 71-35 113 22 20 58 13 94 13 30 0 78 8 100-5 14-7 27-47 38-72 25-58 47-99 77-147 13-20 33-59 56-54 23 5 25 66 26 106 1 44 0 100-12 123-11 23-31 23-51 36 17 38 63 42 119 42 47 0 113 5 131-29 19-34 6-97 5-144-1-53-10-107 24-131 25 3 39 30 53 51 33 47 53 87 78 147 10 25 21 67 39 75 29 12 74 2 115 2 34 0 95 11 105-15 10-21-17-75-25-90-32-57-62-93-96-142-14-20-42-51-40-82 1-24 23-43 40-60 36-37 62-64 91-105 11-16 35-50 33-70-7-63-142-23-187-38" horiz-adv-x="1000" />

<glyph glyph-name="instagram-solo" unicode="&#xe82a;" d="M511 756c-137 0-152 0-206-3-50-2-77-11-95-18-24-9-41-20-59-38-18-18-29-35-38-58-7-18-16-45-18-95-2-54-3-70-3-207s1-152 3-206c3-50 11-77 18-95 9-24 21-41 38-59 18-18 35-29 59-38 18-7 45-15 95-17 54-2 70-3 207-3s153 1 207 3c50 3 77 11 95 18 24 9 41 20 59 38s29 35 38 59c7 18 16 45 18 95 3 54 3 70 3 207s0 153-3 207c-2 50-10 77-17 95-9 24-20 41-38 59s-35 29-58 39c-18 7-45 15-95 17-54 3-70 3-207 3z m0 92c139 0 156 0 211-3 54-2 92-11 124-24 34-13 62-30 90-59 28-28 46-57 59-90 13-33 21-70 24-124 2-55 3-72 3-211s-1-156-3-210c-3-54-12-92-24-124-13-33-31-62-59-90-29-28-57-46-91-58-33-12-70-21-124-23-55-2-72-3-211-3s-156 1-211 4-92 11-124 24c-34 13-62 31-91 59-27 26-45 55-58 88-13 32-22 69-24 123-2 54-2 72-2 210s0 156 3 211c2 54 11 91 24 124 13 33 30 62 58 90 29 28 57 46 91 59 33 13 70 22 124 24 55 3 72 3 211 3z m263-511c0-145-118-262-263-262s-262 117-262 262c0 145 118 263 263 263s262-118 262-263z m-92 0c0 94-77 170-171 170s-170-76-170-170c0-94 76-170 170-170s170 76 170 170z m163 273c0-34-27-61-61-61s-62 27-62 61c0 34 28 61 62 61s61-27 61-61z" horiz-adv-x="1024" />

<glyph glyph-name="random" unicode="&#xe82b;" d="M500-73c-233 0-423 190-423 423 0 233 190 423 423 423 233 0 423-190 423-423 0-233-190-423-423-423m0 923c-276 0-500-224-500-500 0-276 224-500 500-500 276 0 500 224 500 500 0 276-224 500-500 500m142-516l-105-105 0 331c0 20-17 37-37 37-20 0-37-17-37-37l0-331-105 105c-14 15-37 15-52 0-14-14-14-38 0-52l194-194 194 194c14 14 14 38 0 52-14 15-38 15-52 0" horiz-adv-x="1000" />

<glyph glyph-name="blog" unicode="&#xe82c;" d="M6 122l0-266 266 0c0 151-115 266-266 266l0 0z m0 353l0-176c248 0 443-195 443-443l176 0c0 345-274 619-619 619l0 0z m0 354l0-177c443 0 796-353 796-796l177 0c0 540-433 973-973 973l0 0z" horiz-adv-x="1000" />

<glyph glyph-name="check-bg" unicode="&#xe82d;" d="M1000 350c0 276-224 500-500 500-276 0-500-224-500-500 0-276 224-500 500-500 276 0 500 224 500 500z m-570-223l-205 205 71 71 128-129 282 326 76-65-352-408z" horiz-adv-x="1000" />

<glyph glyph-name="about" unicode="&#xe82e;" d="M628 127l-96 0 0 351c0 17-14 32-32 32l-85 0c-18 0-32-15-32-32 0-18 14-32 32-32l53 0 0-319-96 0c-17 0-32-15-32-32 0-18 15-32 32-32l256 0c17 0 32 14 32 32 0 17-15 32-32 32m-149 457c23 0 42 19 42 43 0 23-19 42-42 42-24 0-43-19-43-42 0-24 19-43 43-43m21-670c-240 0-436 196-436 436 0 241 196 436 436 436 241 0 436-195 436-436 0-240-195-436-436-436l0 0z m0 936c-276 0-500-224-500-500 0-276 224-500 500-500 276 0 500 224 500 500 0 276-224 500-500 500l0 0z" horiz-adv-x="1000" />

<glyph glyph-name="termsofuse" unicode="&#xe82f;" d="M292 454c0-17 14-31 31-31l375 0c17 0 31 14 31 31 0 17-14 31-31 31l-375 0c-17 0-31-14-31-31l0 0z m406-219l-375 0c-17 0-31-14-31-31 0-17 14-31 31-31l375 0c17 0 31 14 31 31 0 17-14 31-31 31l0 0z m135-324l-645 0 0 878 395 0 0-231c0-17 14-31 32-31l218 0 0-616 0 0z m-187 835l159-156-159 0 0 156 0 0z m241-150l-250 245c-6 6-14 9-22 9l-459 0c-17 0-31-14-31-31l0-938c0-17 14-31 31-31l709 0c17 0 31 14 31 31l0 694c0 8-3 15-9 21l0 0z m-189-236l-375 0c-17 0-31-14-31-31 0-17 14-31 31-31l375 0c17 0 31 14 31 31 0 17-14 31-31 31l0 0z m0-250l-375 0c-17 0-31-14-31-31 0-17 14-31 31-31l375 0c17 0 31 14 31 31 0 17-14 31-31 31l0 0z m-375 438l187 0c18 0 32 14 32 31 0 17-14 31-32 31l-187 0c-17 0-31-14-31-31 0-17 14-31 31-31l0 0z" horiz-adv-x="1000" />

<glyph glyph-name="close" unicode="&#xe830;" d="M933-150c-17 0-34 6-47 20l-386 385-386-385c-26-27-68-27-94 0-27 26-27 68 0 94l385 386-385 386c-27 26-27 68 0 94 26 27 68 27 94 0l386-385 386 385c26 27 68 27 94 0 27-26 27-68 0-94l-385-386 385-386c27-26 27-68 0-94-13-14-30-20-47-20" horiz-adv-x="1037" />

<glyph glyph-name="facebook" unicode="&#xe831;" d="M500-150c276 0 500 224 500 500 0 276-224 500-500 500-276 0-500-224-500-500 0-276 224-500 500-500z m35 470l89 0 21 88-110 0 0 61c0 27 14 44 56 44l54 0 0 83c-10 2-41 4-78 4-77 0-125-43-125-123l0-69-92 0 0-88 92 0 0-245 93 0 0 245z" horiz-adv-x="1000" />

<glyph glyph-name="gift" unicode="&#xe832;" d="M94-83c0-42 19-55 63-56 121-3 201-3 308-3l0 436-371 0c0-145 0-265 0-377m451 377l0-436c134 0 212-1 316 0 43 0 58 37 58 74l0 362-374 0m311 371c13 53-16 113-68 141-60 32-122 29-172-17-39-35-72-76-110-117-36 39-68 78-105 113-49 47-109 54-171 24-55-27-88-90-74-144 15-56 54-99 123-99 131 1 312 1 452 0 69 0 111 43 125 99l0 0z m-556-43c-26 4-65 38-69 59-5 22 14 60 36 70 21 10 64 2 85-13 35-26 49-69 92-116-68 0-98-7-144 0l0 0z m267 0c43 48 58 89 94 116 20 15 63 23 84 13 22-10 45-50 39-69-8-23-44-46-71-54-38-11-71-10-146-6l0 0z m404-156c-7 20-37 46-55 46l-371 0 0-169c134 0 255-2 383 2 16 0 38 27 44 45 8 24 8 53-1 76m-877 46c-20 0-46-25-55-45-10-22-7-52 0-76 5-17 21-45 35-46 131-3 257-2 391-2l0 169-371 0" horiz-adv-x="1000" />

<glyph glyph-name="answer" unicode="&#xe833;" d="M741 569l-11 0-448 0-11 0c-18 0-33 12-33 26 0 15 15 27 33 27l11 0 448 0 11 0c18 0 33-12 33-27 0-14-15-26-33-26m0-143l-11 0-448 0-11 0c-18 0-33 12-33 26 0 16 15 28 33 28l11 0 448 0 11 0c18 0 33-12 33-28 0-14-15-26-33-26m0-143l-11 0-448 0-11 0c-18 0-33 12-33 27 0 15 15 27 33 27l11 0 448 0 11 0c18 0 33-12 33-27 0-15-15-27-33-27m154 546l-790 0c-58 0-105-47-105-106l0-543c0-56 47-103 105-103l422 0 175-172c14-14 29-18 38-18 23 0 47 19 47 55l1 135 107 0c58 0 105 47 105 103l0 545c0 57-48 104-105 104" horiz-adv-x="1000" />

<glyph glyph-name="add-friend" unicode="&#xe835;" d="M57 9l663 0c-3 23-10 56-26 88-16 31-99 62-187 95-16 5-33 11-49 18-11 4-18 14-18 25l0 95c0 9 4 18 12 23 1 1 35 25 35 71 0 11 6 20 15 25 2 5 4 16 2 25 0 3-1 4-2 5-9 4-15 14-15 24 0 8 3 14 8 29 10 25 30 75 24 107-4 21-49 38-102 39-58 2-94-15-96-24-3-12-14-21-27-21-14 0-18-5-19-6-14-20 4-80 10-100 4-12 5-18 5-24 0-10-5-20-15-24 0-1-1-2-2-5-2-9 0-20 3-25 8-5 14-14 14-25 0-47 35-71 35-71 8-5 13-14 13-23l0-95c0-11-8-21-18-25-17-7-33-13-49-18-89-33-172-64-188-95-16-32-23-65-26-88m693-55l-723 0c-15 0-27 13-27 28 0 3 0 72 34 140 25 50 106 80 218 121 10 4 20 8 31 12l0 62c-16 15-42 45-47 92-7 8-12 19-16 33-5 24-3 52 12 71-11 37-31 105-1 147 8 10 22 22 46 26 24 36 88 49 141 47 67-1 143-24 155-83 9-48-14-106-27-138 0 0 0 0 0-1 14-19 17-46 11-69-3-14-9-25-16-33-5-47-31-77-46-92l0-62c10-4 21-8 31-12 111-41 192-71 217-121 34-68 34-137 34-140 0-15-12-28-27-28z m221 519l-123 0 0 124c0 16-13 29-29 29-16 0-29-13-29-29l0-124-124 0c-16 0-29-13-29-29 0-16 13-29 29-29l124 0 0-123c0-16 13-29 29-29 16 0 29 13 29 29l0 123 123 0c16 0 29 13 29 29 0 16-13 29-29 29z" horiz-adv-x="1071" />

<glyph glyph-name="caret-up" unicode="&#xe836;" d="M936 77c-16 0-32 6-45 18l-391 392-391-392c-25-25-65-25-90 0-25 25-25 65 0 90l436 437c24 23 66 24 90 0l436-437c25-25 25-65 0-90-12-12-28-18-45-18" horiz-adv-x="1000" />

<glyph glyph-name="more" unicode="&#xe837;" d="M123 277c-37 0-67 30-67 67 0 37 30 67 67 67 37 0 67-30 67-67 0-37-30-67-67-67m0 190c-68 0-123-55-123-123 0-68 55-123 123-123 68 0 124 55 124 123 0 68-56 123-124 123z m754-190c-37 0-67 30-67 67 0 37 30 67 67 67 37 0 67-30 67-67 0-37-30-67-67-67z m0 190c-68 0-123-55-123-123 0-68 55-123 123-123 68 0 123 55 123 123 0 68-55 123-123 123z m-377-190c-37 0-67 30-67 67 0 37 30 67 67 67 37 0 67-30 67-67 0-37-30-67-67-67z m0 190c-68 0-123-55-123-123 0-68 55-123 123-123 68 0 123 55 123 123 0 68-55 123-123 123" horiz-adv-x="920" />

<glyph glyph-name="mention" unicode="&#xe838;" d="M444 520c-27-18-49-41-68-69-19-28-34-58-44-90-11-33-16-64-16-93 0-38 10-69 32-93 21-25 49-37 83-37 29 0 56 9 82 29 24 19 46 43 65 72 19 29 34 60 44 93 11 33 16 63 16 91 0 16-3 32-8 47-6 15-14 28-24 39-11 12-22 21-35 28-13 7-27 10-41 10-31 0-60-9-86-27m228-323c-3-12-4-23-4-32 0-28 11-42 32-42 20 0 42 9 64 28 21 19 41 43 59 73 18 29 33 62 44 99 12 36 18 72 18 108 0 53-10 100-30 143-21 43-48 79-81 109-34 30-73 53-116 69-44 16-89 24-136 24-57 0-111-11-160-34-50-22-93-54-129-93-37-39-66-85-87-136-21-52-31-107-31-166 0-60 11-116 33-168 22-51 51-96 89-134 38-38 82-68 132-90 50-22 103-33 160-33 64 0 126 15 185 44 59 30 108 69 147 118l84 0c-22-37-47-70-78-100-30-29-63-53-99-73-37-20-75-35-116-46-41-10-83-15-126-15-71 0-136 13-198 39-61 26-114 61-159 106-45 45-80 98-106 160-26 61-39 127-39 198 0 69 13 134 39 194 27 60 62 113 107 158 46 45 98 80 158 106 61 26 125 39 193 39 61 0 120-10 175-31 55-20 104-49 145-85 42-36 74-79 99-130 24-50 36-106 36-166 0-58-11-111-32-159-21-48-47-88-78-122-31-34-65-61-102-79-36-19-70-28-102-28-23 0-42 7-58 21-17 14-25 36-27 66l-4 0c-21-24-45-44-74-63-28-18-59-27-92-27-29 0-55 5-79 17-23 11-43 26-60 44-16 19-29 41-39 67-9 26-14 54-14 83 0 47 8 93 23 138 15 46 36 86 64 122 27 36 60 65 99 87 39 22 82 34 129 34 31 0 60-9 87-25 27-17 48-45 63-85l31 84 84 0-112-380c-4-12-7-24-11-36" horiz-adv-x="1000" />

<glyph glyph-name="reask" unicode="&#xe839;" d="M545 201c0 0 0 0 0 0-19-4-40-35-38-55 2-22 23-38 48-36 2 0 4 0 6 1 9 2 17 6 23 13 8 8 12 18 10 29-1 15-13 34-27 43-8 5-15 6-22 5z m156 356c-30 51-94 80-158 73l-1 0c-74-9-109-48-125-79-15-26-20-47-18-65l0 0 0 0c5-27 31-39 54-36 19 2 34 13 39 30 1 3 2 7 2 10 1 5 3 16 9 26 10 17 26 26 51 29l1 0c25 3 50-9 62-28 14-25 12-46-9-70-7-7-18-15-31-23-19-12-40-26-57-47-21-26-28-57-23-93 3-24 26-40 52-38l1 0c13 2 23 7 30 15 8 8 11 19 11 32-1 31 7 40 41 61 17 11 36 23 51 40 22 25 34 52 37 80 3 27-3 55-19 83z m-153 249c-209 0-385-144-436-338l-34 102c-7 21-30 32-51 25-21-7-32-30-25-51l79-232c4-12 13-21 25-25 4-1 9-2 13-2 8 0 16 2 23 7l8 6c4 2 8 5 11 8l181 127c18 12 23 37 10 55-13 18-37 23-55 10l-120-84c29 179 184 317 371 317 208 0 377-169 377-377 0-208-169-377-377-377-113 0-220 51-292 139-9 11-17 23-25 35-11 17-34 22-52 11-17-11-22-34-11-52 9-14 20-28 30-41 87-106 214-167 350-167 249 0 452 203 452 452 0 249-203 452-452 452z" horiz-adv-x="1000" />

<glyph glyph-name="settings-notifications" unicode="&#xe83a;" d="M556 164l-482 0c-24 0-44 19-44 44 0 18 6 35 18 48 63 73 84 142 84 242 0 127 92 231 213 251l0 44c0 23 19 41 41 41 23 0 41-18 41-41l0-44c121-20 213-124 213-251 0-59 8-108 27-153-25-18-46-39-64-65l-14-20 15-19c5-7 10-15 16-23l6-7c0-2-1-4-2-6 0-1-1-3-1-4l-7-1c-11-1-21-3-31-5l-24-4-4-23c0-1-1-3-1-4z m-264-49c0-54 44-98 98-98 54 0 98 44 98 98l-196 0m647-180c4 2 7 3 11 3 7 0 13-4 16-7 6-4 12-9 18-13 6-4 12-9 17-13 25 17 46 38 63 63-7 9-13 18-20 27l-6 8c-2 3-8 11 0 34 6 21 14 25 19 27 3 1 5 1 6 1l15 2c9 2 19 3 29 4 5 30 5 60 0 89-3 1-6 1-9 2-4 1-8 1-11 1-36 0-48 21-52 38-4 6-6 16 3 28 4 6 9 12 13 17 4 6 9 12 13 18-17 25-38 46-63 63-9-7-19-14-29-22l-7-5c-3-3-8-4-13-4-7 0-42 7-47 24-1 3-1 5-1 6l-2 14c-1 10-3 20-4 30-15 3-30 4-45 4-14 0-29-1-44-4-1-3-1-6-2-8 0-4-1-9-1-12-1-37-21-49-39-53-3-2-7-3-11-3-7 0-12 4-16 6-10 9-21 16-31 24l-4 3c-25-17-46-38-63-63 6-8 12-16 17-23 4-5 7-9 10-13 2-3 8-10 0-34-8-23-17-25-20-26-3-1-5-1-6-1l-12-2c-10-1-21-3-32-5-5-28-5-58 0-88 12-2 23-4 34-5l11-2c9-1 17-10 24-25 7-15 7-27 2-34-1-1-1-2-2-3l0-1-8-11c-6-8-12-15-18-23 17-25 39-46 63-63 10 7 20 15 31 23l5 4c4 2 8 4 13 4 7 0 42-7 47-24 1-3 1-5 1-7 1-5 2-9 2-14 2-9 3-19 5-29 15-3 29-4 44-4 15 0 30 1 45 4 0 3 0 5 1 8 1 4 1 8 1 12 1 36 21 49 39 53m-87 59l0 0c-31 0-60 16-82 38-22 22-34 53-33 84 0 63 51 116 114 116 64 0 116-56 116-119 0-63-51-119-115-119m1 44c43 0 79 35 79 78 0 43-36 78-79 78-43 0-78-35-78-78 0-43 35-78 78-78z" horiz-adv-x="1119" />

<glyph glyph-name="caret-down" unicode="&#xe83b;" d="M500 76l0 0c-17 0-33 7-45 19l-436 436c-25 25-25 65 0 90 25 25 65 25 90 0l391-391 391 391c25 25 66 25 90 0 25-25 25-65 0-90l-436-436c-12-12-28-19-45-19" horiz-adv-x="1000" />

<glyph glyph-name="settings-profile" unicode="&#xe83c;" d="M1011-65c3 2 7 3 10 3 8 0 13-4 16-7 6-4 12-9 18-13 6-4 12-9 18-13 24 17 45 38 63 63-7 9-14 18-21 27l-6 8c-2 3-8 11 0 34 6 21 14 25 19 27 3 1 6 1 7 1l14 2c10 2 20 3 30 4 5 30 5 60 0 89-4 1-7 1-10 2-4 1-8 1-11 1-36 0-48 21-52 38-3 6-6 16 3 28 5 6 9 12 13 17 5 6 9 12 14 18-18 25-39 46-63 63-10-7-20-14-29-22l-7-5c-4-3-8-4-13-4-7 0-42 7-48 24 0 3-1 5-1 6l-2 14c-1 10-3 20-4 30-15 3-30 4-44 4-15 0-30-1-45-4 0-3-1-6-1-8-1-4-2-9-2-12 0-37-20-49-38-53-4-2-7-3-11-3-7 0-13 4-16 6-11 9-21 16-32 24l-3 3c-26-17-46-38-63-63 5-8 11-16 17-23 3-5 6-9 9-13 3-3 8-10 0-34-8-23-16-25-20-26-2-1-4-1-6-1l-12-2c-10-1-21-3-31-5-6-28-6-58-1-88 12-2 23-4 34-5l11-2c10-1 18-10 24-25 7-15 8-27 3-34-1-1-2-2-3-3l0-1-8-11c-6-8-12-15-18-23 18-25 39-46 63-63 11 7 21 15 31 23l6 4c3 2 7 4 13 4 6 0 42-7 47-24 1-3 1-5 1-7 0-5 1-9 2-14 1-9 3-19 4-29 15-3 30-4 45-4 14 0 29 1 44 4 0 3 1 5 1 8 1 4 2 8 2 12 0 36 20 49 39 53m-87 59l-1 0c-31 0-59 16-81 38-22 22-34 53-34 84 0 63 52 116 115 116 64 0 115-56 115-119 0-63-51-119-114-119m1 44c43 0 78 35 78 78 0 43-35 78-78 78-44 0-79-35-79-78 0-43 35-78 79-78z m-235 193c0 0-1 1-1 1-81 35-31 29-118 41-6 0-13 2-22 4 3 35 6 64 31 91 18 20 19 54 29 84 52 12 26 60 35 93 6 20 12 46-22 51 2 32 5 62 7 92 3 65-30 108-88 132-33 14-61 21-99 22-33-1-66-8-99-22-58-24-92-67-88-132 1-30 4-60 6-92-34-5-28-31-22-51 9-32-17-81 35-93 10-30 11-64 28-84 25-27 29-56 32-91-10-1-16-3-22-4-87-12-171-36-251-71-44-20-64-55-61-103 1-13 2-27 4-42l619 20 0 1c-5 34-5 68 1 101l4 24 25 5c11 1 22 3 32 4l8 2c0 1 1 2 1 4 1 2 2 4 2 6l-6 7z" horiz-adv-x="1190" />

<glyph glyph-name="settings-social" unicode="&#xe83d;" d="M575 98l-528 0c-26 0-47 21-47 47l0 476c0 26 21 47 47 47l367 0c-49-21-87-47-116-77l-221 0 0-416 497 0c-4-25-3-51 1-77z m346 474l-278 278 0-159c-279-40-398-239-438-438 99 139 239 203 438 203l0-163 278 279 0 0z m42-637c3 2 7 3 11 3 7 0 12-4 16-7 6-4 12-9 18-13 5-4 11-9 17-13 25 17 46 38 63 63-7 9-14 18-20 27l-6 8c-2 3-8 11-1 34 7 21 15 25 20 27 2 1 5 1 6 1l14 2c10 2 20 3 30 4 5 30 5 60 0 89-3 1-6 1-9 2-4 1-8 1-12 1-35 0-48 21-52 38-3 6-6 16 4 28 4 6 8 12 13 17 4 6 9 12 13 18-17 25-39 46-63 63-9-7-19-14-29-22l-7-5c-4-3-8-4-13-4-7 0-42 7-47 24-1 3-1 5-1 6l-2 14c-2 10-3 20-4 30-15 3-30 4-45 4-15 0-30-1-44-4-1-3-1-6-2-8-1-4-1-9-1-12-1-37-21-49-39-53-3-2-7-3-11-3-7 0-12 4-16 6-10 9-21 16-31 24l-4 3c-25-17-46-38-63-63 6-8 11-16 17-23 3-5 7-9 10-13 2-3 7-10 0-34-8-23-17-25-20-26-3-1-5-1-6-1l-12-2c-11-1-21-3-32-5-5-28-5-58 0-88 11-2 23-4 34-5l11-2c9-1 17-10 24-25 6-15 7-27 2-34-1-1-1-2-2-3l-1-1-7-11c-6-8-12-15-18-23 17-25 38-46 63-63 10 7 20 15 31 23l5 4c3 2 8 4 13 4 7 0 42-7 47-24 1-3 1-5 1-7 1-5 2-9 2-14 2-9 3-19 4-29 15-3 30-4 45-4 15 0 30 1 44 4 1 3 1 5 2 8 0 4 1 8 1 12 1 36 21 49 39 53m-87 59l-1 0c-30 0-59 16-81 38-22 22-34 53-34 84 0 63 52 116 115 116 64 0 116-56 116-119 0-63-52-119-115-119m1 44c43 0 78 35 78 78 0 43-35 78-78 78-43 0-79-35-79-78 0-43 36-78 79-78z" horiz-adv-x="1143" />

<glyph glyph-name="check" unicode="&#xe844;" d="M431-95c-19 0-36 8-50 21l-361 361c-27 27-27 71 0 98 28 27 71 27 99 0l300-300 453 705c21 33 64 42 96 21 32-21 42-63 21-96l-500-778c-11-17-30-29-51-31-2 0-5-1-7-1" horiz-adv-x="1000" />

<glyph glyph-name="warning" unicode="&#xe84e;" d="M936 350c0-59-11-116-34-170-22-52-54-98-94-138-40-40-86-72-138-94-54-23-111-34-170-34-59 0-116 11-170 34-52 22-98 54-138 94-40 40-72 86-94 138-23 54-34 111-34 170 0 59 11 116 34 170 22 52 54 98 94 138 40 40 86 72 138 94 54 23 111 34 170 34 59 0 116-11 170-34 52-22 98-54 138-94 40-40 72-86 94-138 23-54 34-111 34-170m-436 500c-134 0-259-52-354-146-94-95-146-220-146-354 0-134 52-259 146-354 95-94 220-146 354-146 134 0 259 52 354 146 94 95 146 220 146 354 0 134-52 259-146 354-95 94-220 146-354 146m0-191c-4 0-8 0-12-1-37-8-62-48-55-90l54-347c1-6 5-11 11-12 1 0 1 0 2 0 7 0 12 5 13 12l54 347c1 9 2 18 0 27-6 37-34 64-67 64z m2-513c-1 0-1 0-1 0-11 0-27-25-30-47-3-16 9-32 25-34 2 0 3 0 5 0 15 0 28 11 30 26 1 9-3 23-9 35-7 13-15 19-20 20z" horiz-adv-x="1000" />

<glyph glyph-name="ask-question-stroke" unicode="&#xe869;" d="M330 26h455c123 9 225 110 225 226v326c0 123-103 226-225 226h-559c-123 0-226-103-226-226v-606c0-78 94-112 157-54l173 108z m-22 79l-200-125-3-3c-15-14-26-11-26-5v606c0 79 68 146 147 146h559c79 0 146-67 146-146v-326c0-72-68-141-148-147h-475z m302 464c-23 43-71 67-119 61l-1 0c-55-8-82-40-94-66-11-23-15-40-13-55l0 0v0c4-22 24-32 41-30 14 2 25 12 29 26 1 2 2 5 2 8 0 4 2 13 6 21 7 15 20 22 39 25h0c19 3 38-7 47-23 11-21 9-38-6-58-5-7-14-13-23-20-15-10-31-22-43-40-16-22-21-47-17-77 2-20 20-34 39-31l1 0c9 1 17 5 23 12 5 7 8 16 8 27-1 25 5 33 30 51 13 9 27 19 38 34 17 21 26 43 28 66 2 23-3 46-15 69z m-115-296h0c-14-3-30-29-28-46 2-18 18-32 36-30 2 0 3 1 5 1 7 2 13 6 18 11 5 7 8 16 7 24-1 13-11 29-21 36-6 4-12 6-17 4z" horiz-adv-x="1024" />

<glyph glyph-name="caret-left" unicode="&#xe87f;" d="M712-150c17 0 33 6 46 19 25 25 25 66 0 91l-390 390 390 390c25 25 25 66 0 91-25 25-66 25-91 0l-436-435c-25-26-25-66 0-92l436-435c12-13 29-19 45-19" horiz-adv-x="1000" />

<glyph glyph-name="hash" unicode="&#xe880;" d="M799 462l-153 0-28-223 181 0 0-112-195 0-28-224-112 0 28 224-223 0-28-224-111 0 27 224-139 0 0 112 154 0 27 223-181 0 0 112 196 0 27 223 112 0-28-223 223 0 28 223 112 0-28-223 139 0 0-112z m-293-223l28 223-223 0-28-223 223 0z" horiz-adv-x="817" />

<glyph glyph-name="community-guidelines" unicode="&#xe893;" d="M139 75c37 20 88 43 146 67 11 4 18 14 18 25v82c0 11-6 21-17 25-1 0-24 13-24 76 0 13-9 24-22 27-4 6-6 21-3 27 14 1 25 13 25 27 0 8-3 15-9 28-10 24-15 40-15 49 2 0 6-1 11-2 15-3 29 6 32 20 6 23 47 41 96 41h0c49 0 90-18 95-41 7-27-5-54-12-71-5-9-7-16-7-24 0-13 10-25 24-27 2-6 0-21-4-27-12-3-22-14-22-27 0-62-23-76-22-76h0c-11-3-18-14-18-25v-82c0-11 6-21 17-25 107-43 188-87 206-104v-129c-39-11-80-18-122-18-150 0-290 70-373 184z m373 775c-282 0-512-230-512-512 0-49 7-97 20-144 5-17 24-27 41-22 17 5 27 23 22 41-12 40-18 82-18 125 0 246 201 447 447 447 246 0 447-201 447-447 0-79-21-154-58-218-5 2-10 4-16 6-17 6-36 13-53 19v26c17 13 36 39 39 81 15 14 22 39 22 62 0 20-5 35-13 45 10 19 22 49 11 81-16 48-76 65-128 65-43 0-93-12-117-45-19 0-31-8-37-16-20-23-10-57-1-82-3-3-5-6-7-10-7-13-8-27-8-37 0-24 7-49 22-62 3-43 22-68 40-82v-24c0-15 12-27 27-27 15 0 27 12 27 27v41c0 12-7 22-18 26-1 0-22 9-22 55 0 12-7 21-18 25-3 8-4 22-2 30 11 3 20 14 20 26 0 7-2 13-6 23-3 6-9 22-10 32 1 0 2 0 3 0 14-3 27 5 32 18 4 13 34 27 75 27 42 0 72-14 76-27 6-17-6-37-13-49-5-8-9-15-9-24 0-12 9-23 20-26 2-8 1-22-2-30-4-1-7-3-10-6-5-5-8-12-8-19 0-46-20-55-20-55-12-3-20-14-20-26v-61c0-12 7-22 17-26 23-9 49-18 73-27 1 0 2-1 4-1-47-63-109-113-182-145v117c0 33-75 80-224 141v48c16 13 37 42 40 98 18 14 27 40 27 65 0 15-3 28-10 39-2 3-4 6-7 9 9 22 20 57 11 95-16 60-90 81-149 81h0c-51 0-114-16-139-59-19 0-33-6-43-18-23-27-8-68 5-98-3-3-6-7-9-11-6-10-10-24-10-39 0-25 10-50 27-64 3-56 24-85 40-98v-48c-70-29-124-49-161-77-5-3-8-6-11-8-11-11-14-29-5-42 92-144 261-233 441-233 282 0 512 230 512 512s-230 512-512 512z" horiz-adv-x="1024" />

<glyph glyph-name="owl-sad" unicode="&#xe89f;" d="M292-160c-37-20-75 0-95 34-21 35-12 56-26 64-6 2-23 0-31 0-16 2-28 7-40 17-34 30-34 73-42 86-8 16-21 14-35 33-18 24-15 49-15 76 0 0-8 72-8 72-1 81 7 68 18 136 0 0 14 108 14 108 13 57 37 110 59 164 0 0 69 172 69 172 14 23 32 43 60 47 23 2 44-13 57-31 22-30 37-107 68-124 9-4 51 1 67 0 82-11 97-11 180-31 24-6 31 2 48 19 34 34 60 104 116 100 16-2 28-9 38-20 31-35 36-140 43-188 0 0 23-196 23-196s0-44 0-44c0 0-11-96-11-96s-13-96-13-96c0 0-21-60-21-60s-6-28-6-28c-8-38-19-36-33-60-10-18-11-31-32-44-22-12-35-2-46-8-9-5-12-17-23-27-21-21-44-24-71-17-17-48-49-82-104-66-24 7-34 24-48 23-10-1-19-12-36-18-33-10-67 9-84 37-14-11-24-26-40-34z m-76 890c-14 3-23-9-29-20-6-12-32-78-35-92 53 28 34 34 108 56-9 16-25 52-44 56z m548-76c-7 16-23 24-40 16-13-7-33-35-44-48 60-26 65-41 108-84 0 0-24 116-24 116z m-452-184c46-36 48-106 7-148-41-42-95-27-120 24-7 16-7 23-7 40-11-5-26-13-32-25-4-9 0-29 3-39 9-38 31-71 69-83 44-14 86 13 111 47 43 58 55 142 25 208 0 0-56-24-56-24z m276-48c-2 11-15 24-24 30-6 4-12 7-19 5-15-5-32-52-36-67-16-60-9-134 35-180 38-39 89-35 128 0 9 9 22 24 24 36 1 13-13 37-20 48-20-19-35-38-64-42-44-5-77 38-80 78-1 24 5 38 12 60 20-4 48 8 44 32z m-150-216c6 10 19 33 19 44 1 27-39 42-59 15-8-11-3-23 0-35 0 0 14-52 14-52 15 8 18 13 26 28z" horiz-adv-x="942" />

<glyph glyph-name="star" unicode="&#xe8a0;" d="M929 489q0-12-15-27l-202-197 48-279q0-4 0-12 0-11-6-19t-17-9q-10 0-22 7l-251 132-250-132q-12-7-23-7-11 0-17 9t-6 19q0 4 1 12l48 279-203 197q-14 15-14 27 0 21 31 26l280 40 126 254q11 23 27 23t28-23l125-254 280-40q32-5 32-26z" horiz-adv-x="928.6" />

<glyph glyph-name="photopoll" unicode="&#xe8e3;" d="M866 438c32-33 29-82 0-110l-122-121c-8-8-22-8-30 0l-122 121c-29 29-32 77 0 111 31 32 83 31 115-1 12-12 32-12 44 0 32 32 84 33 115 0z m-501-111l-71-70c-3-3-6-4-9-4s-6 1-8 4l-72 70c-16 17-18 45 0 65 9 9 21 14 33 14 13 0 25-5 34-14 4-4 9-6 13-6 5 0 10 2 13 6 9 9 22 14 34 14 12 0 24-5 33-14 19-20 17-48 0-65z m-33 135c-16 0-32-4-47-11-14 7-30 11-47 11-28 0-54-11-74-31-39-41-38-104 2-144l71-71c13-13 30-20 48-20 19 0 36 7 49 20l71 71c40 40 41 103 1 144-19 20-45 31-74 31z m192 69v-393c0-12-11-22-23-22-13 0-23 10-23 22v393c0 12 10 23 23 23 12 0 23-11 23-23z m422-360c-9-50-65-115-119-122l-4-1c-209-54-413-54-622 0l-4 1c-54 7-110 72-119 122-2 109-2 211 0 320 9 50 65 115 119 122l4 1c209 54 413 54 622 0l4-1c54-7 110-72 119-122 2-109 2-211 0-320z m69 324l-1 5c-11 75-89 168-176 181-219 56-433 56-652 0-87-13-164-106-176-181l0-5c-2-112-2-216 0-328l0-5c12-75 89-168 176-181 110-28 218-42 326-42 108 0 216 14 326 42 87 13 164 106 176 181l1 5c1 112 1 216 0 328z" horiz-adv-x="1024" />

<glyph glyph-name="photopoll-inverse" unicode="&#xe929;" d="M852 1c-236-58-458-58-694 0-72 11-145 95-156 156-2 124-2 234 0 358 11 62 84 145 156 157 236 57 458 57 694 0 72-12 146-95 157-157 1-124 1-234 0-358-11-61-84-145-157-156z m-541 480c-17 0-34-4-49-12-15 8-32 12-49 12-29 0-57-12-77-33-41-43-41-109 1-150l75-74c13-14 31-21 50-21 19 0 37 8 51 21l74 74c42 41 42 107 1 150-20 21-47 33-77 33z m0-59c13 0 25-5 35-15 19-20 17-50-1-67l-74-74c-2-2-6-4-9-4-3 0-6 2-9 4l-74 74c-18 17-20 47 0 67 9 10 22 15 34 15 13 0 26-5 36-15 3-4 8-5 13-5 5 0 10 1 14 5 9 10 22 15 35 15z m587 27c-30 31-82 31-113 0-11-12-31-12-43 0-31 31-82 31-112 0-32-33-28-80 0-108l119-119c8-8 21-8 29 0l120 119c28 28 32 75 0 108z m-404 89v-385c0-12 10-22 22-22 13 0 23 10 23 22v385c0 12-10 22-23 22-12 0-22-10-22-22z" horiz-adv-x="1024" />

<glyph glyph-name="ask-question" unicode="&#xe947;" d="M264-32l-175-120c-34-35-89-7-89 46v618c0 112 94 204 208 204h603c114 0 208-92 208-204v-340c0-112-94-204-208-204h-547z m366 545c-25 46-76 73-129 66l0 0c-60-9-89-44-102-72-11-24-16-42-14-59v0l1 0c4-24 25-34 43-32 16 2 28 12 32 27 1 3 1 6 2 9 0 5 2 14 6 23 8 16 22 24 42 27h0c21 3 42-8 51-25 12-23 10-41-7-63-5-6-15-13-25-21-15-11-33-23-46-42-16-24-22-52-18-84 2-21 21-36 43-34l0 0c10 2 19 6 25 13 6 8 9 18 8 30-1 27 6 35 33 55 14 9 29 20 41 36 18 23 28 47 30 72s-3 50-16 74z m-127-338h0c-15-3-32-31-30-50 2-19 19-34 39-32 2 1 3 1 5 1 8 2 14 6 19 12 6 8 9 17 8 26-1 14-11 31-23 39-6 4-12 6-18 5z" horiz-adv-x="1024" />

<glyph glyph-name="create-content" unicode="&#xe979;" d="M589 430c-4 84-14 168-30 251-4 16-25 30-47 30h-15c-22 0-44-14-47-30-16-84-26-167-30-251-84-4-167-14-251-30-16-3-30-25-30-47v-15c0-22 14-43 30-47 84-16 167-26 251-30 4-83 14-167 30-250 3-17 25-30 47-31h15c22 0 43 14 47 31 16 83 26 167 30 250 83 4 167 14 250 30 17 4 31 25 31 47v15c0 22-14 44-31 47-83 16-167 26-250 30z" horiz-adv-x="1024" />
</font>
</defs>
</svg>
